<svg width="32" height="30" viewBox="0 0 32 30" fill="none" xmlns="http://www.w3.org/2000/svg">
<g filter="url(#filter0_d)">
<path d="M27 19C27 19.5304 26.7893 20.0391 26.4142 20.4142C26.0391 20.7893 25.5304 21 25 21H7C6.46957 21 5.96086 20.7893 5.58579 20.4142C5.21071 20.0391 5 19.5304 5 19V8C5 7.46957 5.21071 6.96086 5.58579 6.58579C5.96086 6.21071 6.46957 6 7 6H11L13 3H19L21 6H25C25.5304 6 26.0391 6.21071 26.4142 6.58579C26.7893 6.96086 27 7.46957 27 8V19Z" stroke="#131313" stroke-linecap="round" stroke-linejoin="round"/>
<path d="M15.9999 17.1667C18.3011 17.1667 20.1666 15.3012 20.1666 13C20.1666 10.6989 18.3011 8.83337 15.9999 8.83337C13.6987 8.83337 11.8333 10.6989 11.8333 13C11.8333 15.3012 13.6987 17.1667 15.9999 17.1667Z" stroke="#131313" stroke-linecap="round" stroke-linejoin="round"/>
<path d="M16 11.3334V14.6667" stroke="#131313" stroke-linecap="round" stroke-linejoin="round"/>
<path d="M14.3333 13H17.6666" stroke="#131313" stroke-linecap="round" stroke-linejoin="round"/>
</g>
<defs>
<filter id="filter0_d" x="0" y="0" width="32" height="32" filterUnits="userSpaceOnUse" color-interpolation-filters="sRGB">
<feFlood flood-opacity="0" result="BackgroundImageFix"/>
<feColorMatrix in="SourceAlpha" type="matrix" values="0 0 0 0 0 0 0 0 0 0 0 0 0 0 0 0 0 0 127 0" result="hardAlpha"/>
<feOffset dy="4"/>
<feGaussianBlur stdDeviation="2"/>
<feColorMatrix type="matrix" values="0 0 0 0 0 0 0 0 0 0 0 0 0 0 0 0 0 0 0.25 0"/>
<feBlend mode="normal" in2="BackgroundImageFix" result="effect1_dropShadow"/>
<feBlend mode="normal" in="SourceGraphic" in2="effect1_dropShadow" result="shape"/>
</filter>
</defs>
</svg>
