<svg width="193" height="169" viewBox="0 0 193 169" fill="none" xmlns="http://www.w3.org/2000/svg">
<g clip-path="url(#clip0)">
<path d="M122.073 39.7996H121.152V14.5904C121.152 12.6744 120.775 10.7771 120.042 9.00689C119.309 7.2367 118.234 5.62826 116.879 4.27341C115.524 2.91857 113.916 1.84385 112.146 1.11061C110.375 0.377379 108.478 -7.10359e-06 106.562 1.00281e-10H53.153C51.2369 -6.79474e-06 49.3396 0.377379 47.5694 1.11061C45.7992 1.84385 44.1908 2.91857 42.8359 4.27342C41.4811 5.62826 40.4064 7.2367 39.6731 9.00689C38.9399 10.7771 38.5625 12.6744 38.5625 14.5904V152.89C38.5625 154.806 38.9399 156.703 39.6731 158.474C40.4064 160.244 41.4811 161.852 42.8359 163.207C44.1908 164.562 45.7992 165.637 47.5694 166.37C49.3396 167.103 51.2369 167.48 53.153 167.48H106.562C108.478 167.48 110.375 167.103 112.146 166.37C113.916 165.637 115.524 164.562 116.879 163.207C118.234 161.852 119.309 160.244 120.042 158.474C120.775 156.703 121.152 154.806 121.152 152.89V57.744H122.073L122.073 39.7996Z" fill="#3F3D56"/>
<path d="M168.923 160.604H0.0566406V161.075H168.923V160.604Z" fill="#3F3D56"/>
<path opacity="0.2" d="M107.562 3H100.591C100.911 3.78603 101.034 4.63884 100.947 5.48331C100.86 6.32777 100.567 7.13798 100.094 7.84256C99.6204 8.54713 98.9809 9.12444 98.2317 9.52363C97.4825 9.92283 96.6467 10.1317 95.7978 10.1317H65.2004C64.3515 10.1317 63.5156 9.92283 62.7664 9.52363C62.0172 9.12443 61.3777 8.54712 60.9042 7.84255C60.4307 7.13798 60.1378 6.32777 60.0511 5.48331C59.9645 4.63884 60.0869 3.78603 60.4075 3H53.896C52.4651 3 51.0482 3.28183 49.7263 3.8294C48.4043 4.37697 47.2031 5.17956 46.1914 6.19134C45.1796 7.20312 44.377 8.40428 43.8294 9.72624C43.2818 11.0482 43 12.4651 43 13.8959V151.993C43 153.424 43.2818 154.84 43.8294 156.162C44.377 157.484 45.1796 158.685 46.1914 159.697C47.2031 160.709 48.4043 161.512 49.7263 162.059C51.0482 162.607 52.4651 162.889 53.896 162.889H107.562C108.993 162.889 110.41 162.607 111.732 162.059C113.054 161.512 114.255 160.709 115.267 159.697C116.279 158.685 117.081 157.484 117.629 156.162C118.176 154.84 118.458 153.424 118.458 151.993V13.8959C118.458 12.4651 118.176 11.0482 117.629 9.72624C117.081 8.40428 116.279 7.20312 115.267 6.19134C114.255 5.17956 113.054 4.37697 111.732 3.8294C110.41 3.28183 108.993 3 107.562 3Z" fill="black"/>
<path d="M16.8317 161.05L16.5793 160.955C16.5238 160.934 11.0033 158.819 8.41722 154.023C5.83105 149.227 7.09738 143.452 7.11047 143.395L7.17007 143.132L7.42237 143.226C7.47784 143.247 12.9982 145.362 15.5844 150.158C18.1706 154.954 16.9043 160.729 16.8912 160.787L16.8317 161.05ZM8.83133 153.8C11.0177 157.855 15.3802 159.933 16.4855 160.408C16.6957 159.223 17.3548 154.433 15.1703 150.382C12.9861 146.331 8.62186 144.249 7.51608 143.774C7.30581 144.959 6.64699 149.749 8.83133 153.8Z" fill="#3F3D56"/>
<path d="M10.3926 152.341C15.0401 155.137 16.83 160.691 16.83 160.691C16.83 160.691 11.0848 161.711 6.43737 158.915C1.78989 156.119 0 150.565 0 150.565C0 150.565 5.74516 149.545 10.3926 152.341Z" fill="#182CE4"/>
<path d="M66.4721 54.0671H56.1328V56.5562H66.4721V54.0671Z" fill="#182CE4"/>
<path d="M102.277 54.0671H98.6387V56.5562H102.277V54.0671Z" fill="#182CE4"/>
<path d="M109.552 54.0671H105.914V56.5562H109.552V54.0671Z" fill="#182CE4"/>
<path d="M94.8088 54.0671H70.1094V56.5562H94.8088V54.0671Z" fill="#182CE4"/>
<path d="M89.257 70.1504H85.6191V72.6395H89.257V70.1504Z" fill="#182CE4"/>
<path d="M96.5324 70.1504H92.8945V72.6395H96.5324V70.1504Z" fill="#182CE4"/>
<path d="M81.7893 70.1504H57.0898V72.6395H81.7893V70.1504Z" fill="#182CE4"/>
<path d="M96.1498 59.6196H85.8105V62.1087H96.1498V59.6196Z" fill="#182CE4"/>
<path d="M110.126 59.6196H99.7871V62.1087H110.126V59.6196Z" fill="#182CE4"/>
<path d="M54.0266 59.6196H50.3887V62.1087H54.0266V59.6196Z" fill="#182CE4"/>
<path d="M82.3635 59.6196H57.6641V62.1087H82.3635V59.6196Z" fill="#182CE4"/>
<path d="M64.3658 67.4698H74.7051V64.9808H64.3658V67.4698Z" fill="#182CE4"/>
<path d="M50.3892 67.4698H60.7285V64.9808H50.3892V67.4698Z" fill="#182CE4"/>
<path d="M106.489 67.4698H110.127V64.9808H106.489V67.4698Z" fill="#182CE4"/>
<path d="M78.1521 67.4698H102.852V64.9808H78.1521V67.4698Z" fill="#182CE4"/>
<path d="M80.3158 116.153C85.5114 116.153 89.7234 111.941 89.7234 106.746C89.7234 101.55 85.5114 97.3381 80.3158 97.3381C75.1201 97.3381 70.9082 101.55 70.9082 106.746C70.9082 111.941 75.1201 116.153 80.3158 116.153Z" fill="#182CE4"/>
<path d="M140.977 51.1499C138.247 46.5373 132.846 46.3223 132.846 46.3223C132.846 46.3223 127.583 45.6493 124.207 52.6743C121.061 59.2222 116.718 65.5443 123.508 67.0771L124.735 63.2596L125.494 67.3613C126.461 67.4309 127.431 67.4474 128.4 67.411C135.672 67.1762 142.597 67.4797 142.374 64.8702C142.078 61.4012 143.603 55.5881 140.977 51.1499Z" fill="#2F2E41"/>
<path d="M131.146 59.8362C131.146 59.8362 134.674 64.7752 132.558 68.7734C130.441 72.7717 137.497 77.0051 137.497 77.0051L142.671 65.716C142.671 65.716 136.556 61.7177 138.202 57.9547L131.146 59.8362Z" fill="#FBBEBE"/>
<path d="M133.498 61.953C136.875 61.953 139.613 59.2153 139.613 55.8381C139.613 52.4609 136.875 49.7231 133.498 49.7231C130.121 49.7231 127.383 52.4609 127.383 55.8381C127.383 59.2153 130.121 61.953 133.498 61.953Z" fill="#FBBEBE"/>
<path d="M112.336 62.9069L117.446 56.3136C117.446 56.3136 119.245 49.4026 121.852 49.753C124.458 50.1034 120.822 58.041 120.822 58.041L115.745 65.3391L112.336 62.9069Z" fill="#FBBEBE"/>
<path d="M138.201 150.619L139.847 159.321L143.375 160.262L142.435 149.914L138.201 150.619Z" fill="#FBBEBE"/>
<path d="M173.715 141.212L180.065 149.914L182.652 151.09L184.769 147.562L178.419 139.33L173.715 141.212Z" fill="#FBBEBE"/>
<path d="M136.789 73.242L132.866 68.0774C132.866 68.0774 125.265 69.479 124.559 70.1846C123.854 70.8902 126.441 83.8256 126.441 83.8256C126.441 83.8256 126.911 87.3534 129.028 89.2349L131.145 90.6461L148.549 87.1182L149.203 79.3744C149.442 76.5538 149.088 73.7146 148.165 71.0385C147.243 68.3625 145.771 65.9087 143.845 63.8345L140.817 64.2485L136.789 73.242Z" fill="#575A89"/>
<path d="M125.502 70.655L124.326 70.1846L118.917 69.7142C118.917 69.7142 117.035 69.2438 117.506 68.3031C117.976 67.3623 118.446 67.1271 117.506 66.8919C116.565 66.6568 116.33 66.4216 116.565 65.716C116.8 65.0104 118.211 63.5993 118.211 63.5993L114.213 60.3066C114.213 60.3066 113.997 60.4597 113.647 60.7429C111.662 62.3501 105.381 68.1489 109.98 73.9476C115.389 80.7681 121.739 84.7664 126.913 83.3552L125.502 70.655Z" fill="#575A89"/>
<path d="M130.674 89.4702V92.7628C130.674 92.7628 128.558 96.7611 129.263 100.524C129.969 104.287 130.204 106.169 130.204 106.169C130.281 109.369 130.836 112.54 131.85 115.576C133.497 120.28 128.087 151.09 134.908 151.56C141.728 152.031 145.491 152.501 147.608 150.149C149.725 147.797 144.08 107.345 144.08 107.345C144.08 107.345 163.366 147.562 167.364 145.916C171.362 144.269 181.475 140.506 180.299 138.39C179.123 136.273 149.489 89.235 149.489 89.235L148.549 87.1183L130.674 89.4702Z" fill="#2F2E41"/>
<path d="M141.964 157.675C141.964 157.675 138.201 157.44 138.201 158.616C138.201 159.792 136.32 163.79 136.32 163.79C136.32 163.79 134.909 168.494 138.672 168.023C142.435 167.553 144.787 163.32 144.787 163.32L143.846 158.851L141.964 157.675Z" fill="#2F2E41"/>
<path d="M181.241 149.443C181.241 149.443 177.949 147.327 178.184 148.738C178.419 150.149 178.654 153.912 180.301 154.147C181.947 154.382 186.886 155.794 187.121 156.264C187.356 156.734 193.001 158.616 193.001 155.558C193.001 152.501 189.473 150.149 189.473 150.149L185.475 147.092C185.475 147.092 182.888 146.856 182.417 148.503C181.947 150.149 181.241 149.443 181.241 149.443Z" fill="#2F2E41"/>
<path d="M133.507 50.2507C135.663 50.2507 137.412 48.5024 137.412 46.3457C137.412 44.189 135.663 42.4407 133.507 42.4407C131.35 42.4407 129.602 44.189 129.602 46.3457C129.602 48.5024 131.35 50.2507 133.507 50.2507Z" fill="#2F2E41"/>
<path d="M129.19 45.318C129.19 44.3535 129.547 43.4232 130.192 42.7063C130.837 41.9893 131.725 41.5365 132.684 41.4349C132.139 41.3769 131.588 41.4341 131.067 41.6029C130.546 41.7716 130.067 42.048 129.659 42.4142C129.252 42.7804 128.926 43.2282 128.703 43.7285C128.48 44.2287 128.365 44.7703 128.365 45.318C128.365 45.8657 128.48 46.4073 128.703 46.9075C128.926 47.4078 129.252 47.8556 129.659 48.2218C130.067 48.588 130.546 48.8644 131.067 49.0331C131.588 49.2018 132.139 49.2591 132.684 49.2011C131.725 49.0995 130.837 48.6466 130.192 47.9297C129.547 47.2128 129.19 46.2825 129.19 45.318Z" fill="#2F2E41"/>
<path d="M139.769 50.7051L134.434 47.9102L127.065 49.0536L125.541 55.7867L129.336 55.6408L130.396 53.1671V55.5999L132.147 55.5326L133.163 51.5944L133.799 55.7867L140.024 55.6596L139.769 50.7051Z" fill="#2F2E41"/>
<path d="M139.45 90.0151L131.221 90.2375C131.221 90.2375 124.2 91.6038 124.594 88.7698C124.988 85.9358 131.838 86.927 131.838 86.927L139.336 85.7832L139.45 90.0151Z" fill="#FBBEBE"/>
<path d="M145.961 63.4358C146.375 63.3732 146.797 63.4603 147.152 63.6814C147.507 63.9025 147.772 64.2431 147.898 64.6419C149.509 69.7182 154.472 86.7058 149.541 89.0364C143.733 91.7814 139.495 91.6607 139.495 91.6607L137.227 86.0755L139.292 84.1374L141.496 69.9613L142.553 63.9521L145.961 63.4358Z" fill="#575A89"/>
<path opacity="0.4" d="M144.434 72.8892L143.493 82.2967L135.262 85.8246L144.434 83.7079V72.8892Z" fill="black"/>
<path d="M90.7312 97.8837C90.7139 97.8613 90.7139 97.8613 90.6966 97.8389L88.8152 95.7002C88.5535 95.3841 88.1549 95.1914 87.7134 95.1747C87.3116 95.1631 86.934 95.2757 86.6205 95.5175C86.5981 95.5347 86.5757 95.552 86.5533 95.5693L84.1099 97.9357C83.4777 98.459 83.3796 99.374 83.8805 100.024C83.9151 100.068 83.9496 100.113 83.9867 100.138L84.9655 100.991C84.8375 101.357 84.1437 102.357 81.9264 104.066C79.709 105.776 78.5661 106.193 78.179 106.224L77.6033 105.061C77.5886 105.019 77.5541 104.974 77.5195 104.929C77.0186 104.279 76.1062 104.161 75.442 104.62L72.5322 106.382C72.5098 106.399 72.4874 106.416 72.465 106.434C71.7931 106.952 71.6253 107.938 72.0865 108.583L73.6768 110.946C73.6941 110.969 73.6941 110.969 73.7114 110.991C74.0223 111.394 74.5597 111.605 75.1746 111.684C76.2656 111.825 77.5715 111.55 78.2594 111.377C79.5929 111.045 82.2286 110.155 85.006 108.014C87.0666 106.425 88.8188 104.413 89.9735 102.343C90.4785 101.4 91.6293 99.0484 90.7312 97.8837ZM84.0163 106.777C79.8727 109.972 75.6163 110.451 74.9682 110.004L73.4297 107.708L76.2723 105.998L76.8307 107.139C76.8479 107.161 76.8454 107.181 76.8627 107.204C77.0622 107.532 77.3789 107.734 77.7731 107.805C78.1474 107.874 79.31 108.084 82.8712 105.338C83.7447 104.664 86.4325 102.592 86.553 101.034C86.5844 100.635 86.4495 100.275 86.2026 100.001C86.1853 99.9785 86.168 99.9561 86.1482 99.9535L85.1866 99.1235L87.5628 96.8089L89.3924 98.8804C89.7046 99.5862 88.1599 103.581 84.0163 106.777Z" fill="white"/>
</g>
<defs>
<clipPath id="clip0">
<rect width="193" height="168.057" fill="white"/>
</clipPath>
</defs>
</svg>
