<svg width="193" height="149" viewBox="0 0 193 149" fill="none" xmlns="http://www.w3.org/2000/svg">
<g clip-path="url(#clip0)">
<path d="M44.4398 102.629L59.3825 79.1304L25.9178 57.8507L8.63574 85.0281L36.3153 102.629H44.4398Z" fill="#F0F0F0"/>
<path d="M65.6153 109.96H28.6016V102.509H65.6153V109.96ZM29.0823 109.479H65.1346V102.99H29.0823V109.479Z" fill="#3F3D56"/>
<path d="M61.048 108.638C62.3754 108.638 63.4515 107.562 63.4515 106.234C63.4515 104.907 62.3754 103.831 61.048 103.831C59.7206 103.831 58.6445 104.907 58.6445 106.234C58.6445 107.562 59.7206 108.638 61.048 108.638Z" fill="#6C63FF"/>
<path d="M54.3185 108.638C55.6459 108.638 56.722 107.562 56.722 106.234C56.722 104.907 55.6459 103.831 54.3185 103.831C52.9911 103.831 51.915 104.907 51.915 106.234C51.915 107.562 52.9911 108.638 54.3185 108.638Z" fill="#6C63FF"/>
<path d="M47.589 108.638C48.9164 108.638 49.9925 107.562 49.9925 106.234C49.9925 104.907 48.9164 103.831 47.589 103.831C46.2616 103.831 45.1855 104.907 45.1855 106.234C45.1855 107.562 46.2616 108.638 47.589 108.638Z" fill="#6C63FF"/>
<path d="M40.8595 108.638C42.187 108.638 43.263 107.562 43.263 106.234C43.263 104.907 42.187 103.831 40.8595 103.831C39.5321 103.831 38.4561 104.907 38.4561 106.234C38.4561 107.562 39.5321 108.638 40.8595 108.638Z" fill="#6C63FF"/>
<path d="M34.1291 108.638C35.4565 108.638 36.5326 107.562 36.5326 106.234C36.5326 104.907 35.4565 103.831 34.1291 103.831C32.8017 103.831 31.7256 104.907 31.7256 106.234C31.7256 107.562 32.8017 108.638 34.1291 108.638Z" fill="#6C63FF"/>
<path d="M109.599 27.1595V8.89296H118.732V5.72205e-05H74.0273V44.7049H112.243V40.334C112.243 39.5192 112.403 38.7124 112.715 37.9597C113.027 37.2069 113.484 36.5229 114.06 35.9468C114.636 35.3707 115.32 34.9137 116.073 34.6019C116.826 34.2901 117.632 34.1296 118.447 34.1296H118.732V27.1595H109.599Z" fill="#F0F0F0"/>
<path d="M159.111 115.368H129.308V121.617H159.111V115.368Z" fill="#6C63FF"/>
<path d="M165.6 84.6029H121.856V90.3712H165.6V84.6029Z" fill="#F0F0F0"/>
<path d="M173.095 148.295H118.447C116.738 148.293 115.1 147.614 113.892 146.405C112.684 145.197 112.004 143.559 112.002 141.85V40.3341C112.004 38.6254 112.684 36.9873 113.892 35.779C115.1 34.5708 116.738 33.8912 118.447 33.8893H173.095C174.804 33.8912 176.442 34.5708 177.65 35.779C178.858 36.9873 179.538 38.6254 179.54 40.3341V141.85C179.538 143.559 178.858 145.197 177.65 146.405C176.442 147.614 174.804 148.293 173.095 148.295ZM118.447 34.37C116.866 34.3718 115.35 35.0007 114.231 36.1188C113.113 37.2369 112.484 38.7528 112.483 40.3341V141.85C112.484 143.432 113.113 144.948 114.231 146.066C115.35 147.184 116.866 147.813 118.447 147.815H173.095C174.676 147.813 176.192 147.184 177.31 146.066C178.428 144.948 179.057 143.432 179.059 141.85V40.3341C179.057 38.7528 178.428 37.2369 177.31 36.1188C176.192 35.0007 174.676 34.3718 173.095 34.37H118.447Z" fill="#3F3D56"/>
<path d="M139.282 38.6962C138.997 38.6962 138.718 38.6116 138.481 38.4532C138.244 38.2947 138.059 38.0695 137.95 37.806C137.84 37.5425 137.812 37.2525 137.868 36.9728C137.923 36.693 138.061 36.4361 138.262 36.2344C138.464 36.0327 138.721 35.8954 139.001 35.8397C139.28 35.7841 139.57 35.8126 139.834 35.9218C140.097 36.0309 140.323 36.2158 140.481 36.4529C140.639 36.6901 140.724 36.9689 140.724 37.2541C140.724 37.6364 140.572 38.003 140.301 38.2733C140.031 38.5437 139.664 38.6958 139.282 38.6962ZM139.282 36.2927C139.092 36.2927 138.906 36.3491 138.748 36.4547C138.59 36.5604 138.466 36.7105 138.394 36.8862C138.321 37.0619 138.302 37.2552 138.339 37.4417C138.376 37.6281 138.468 37.7995 138.602 37.9339C138.737 38.0684 138.908 38.1599 139.094 38.197C139.281 38.2341 139.474 38.2151 139.65 38.1423C139.826 38.0695 139.976 37.9463 140.081 37.7882C140.187 37.6301 140.243 37.4442 140.243 37.2541C140.243 36.9992 140.142 36.7548 139.961 36.5746C139.781 36.3943 139.537 36.293 139.282 36.2927Z" fill="#3F3D56"/>
<path d="M153.462 37.0138H142.887V37.4945H153.462V37.0138Z" fill="#3F3D56"/>
<path d="M175.214 40.8595V60.0874C170.115 60.0872 165.224 58.0613 161.618 54.4554C158.012 50.8496 155.987 45.959 155.986 40.8595H175.214Z" fill="#6C63FF"/>
<path d="M175.454 141.806H116.088V40.6194H175.454V141.806ZM116.569 141.325H174.973V41.1001H116.569V141.325Z" fill="#3F3D56"/>
<path opacity="0.1" d="M161.274 58.8856C164.858 58.8856 167.763 55.9802 167.763 52.3962C167.763 48.8122 164.858 45.9068 161.274 45.9068C157.69 45.9068 154.784 48.8122 154.784 52.3962C154.784 55.9802 157.69 58.8856 161.274 58.8856Z" fill="black"/>
<path d="M160.313 59.6066C163.897 59.6066 166.802 56.7012 166.802 53.1172C166.802 49.5332 163.897 46.6278 160.313 46.6278C156.729 46.6278 153.823 49.5332 153.823 53.1172C153.823 56.7012 156.729 59.6066 160.313 59.6066Z" fill="#6C63FF"/>
<path d="M127.866 44.7053H118.732V48.0701H127.866V44.7053Z" fill="#3F3D56"/>
<path d="M132.913 76.6712H123.779V80.0361H132.913V76.6712Z" fill="#3F3D56"/>
<path d="M168.003 89.1696H123.779V82.9205H168.003V89.1696ZM124.26 88.6889H167.523V83.4012H124.26V88.6889Z" fill="#3F3D56"/>
<path d="M165.6 102.869H121.856V108.638H165.6V102.869Z" fill="#F0F0F0"/>
<path d="M132.913 94.9378H123.779V98.3027H132.913V94.9378Z" fill="#3F3D56"/>
<path d="M168.003 107.436H123.779V101.187H168.003V107.436ZM124.26 106.955H167.523V101.668H124.26V106.955Z" fill="#3F3D56"/>
<path d="M161.033 120.175H130.749V113.445H161.033V120.175ZM131.23 119.694H160.552V113.925H131.23V119.694Z" fill="#3F3D56"/>
<path d="M166.802 86.7659C166.802 87.2607 166.649 87.7435 166.365 88.1482C166.08 88.553 165.677 88.8601 165.212 89.0275C164.746 89.195 164.24 89.2147 163.763 89.084C163.286 88.9532 162.861 88.6784 162.545 88.2969L162.543 88.2945C162.313 88.0158 162.149 87.6889 162.063 87.3381C161.977 86.9873 161.971 86.6217 162.046 86.2683C162.121 85.9149 162.274 85.5829 162.495 85.297C162.716 85.0111 162.998 84.7787 163.321 84.6169C163.644 84.4552 163.999 84.3683 164.361 84.3627C164.722 84.3572 165.079 84.4331 165.407 84.5849C165.735 84.7366 166.024 84.9603 166.254 85.2393C166.483 85.5183 166.647 85.8454 166.732 86.1963C166.732 86.1966 166.732 86.1969 166.733 86.1972C166.733 86.1975 166.733 86.1978 166.733 86.198C166.733 86.1982 166.734 86.1984 166.734 86.1985C166.734 86.1986 166.734 86.1987 166.735 86.1987C166.779 86.3845 166.802 86.5749 166.802 86.7659Z" fill="#6C63FF"/>
<path opacity="0.1" d="M166.802 86.7659C166.802 87.2607 166.649 87.7434 166.364 88.1482C166.08 88.553 165.677 88.8601 165.212 89.0275C164.746 89.195 164.24 89.2147 163.763 89.0839C163.286 88.9532 162.86 88.6783 162.545 88.2969L162.543 88.2945C162.498 88.1087 162.476 87.9184 162.476 87.7273C162.476 87.2325 162.628 86.7498 162.913 86.345C163.198 85.9402 163.6 85.6332 164.066 85.4657C164.531 85.2982 165.037 85.2785 165.515 85.4093C165.992 85.54 166.417 85.8149 166.732 86.1963C166.732 86.1966 166.732 86.1969 166.732 86.1972C166.732 86.1975 166.733 86.1978 166.733 86.198C166.733 86.1982 166.733 86.1984 166.734 86.1985C166.734 86.1986 166.734 86.1987 166.735 86.1987C166.779 86.3845 166.802 86.5749 166.802 86.7659Z" fill="black"/>
<path d="M165.36 90.6116C166.687 90.6116 167.763 89.5355 167.763 88.2081C167.763 86.8807 166.687 85.8046 165.36 85.8046C164.032 85.8046 162.956 86.8807 162.956 88.2081C162.956 89.5355 164.032 90.6116 165.36 90.6116Z" fill="#6C63FF"/>
<path d="M166.802 105.033C166.802 105.527 166.649 106.01 166.365 106.415C166.08 106.82 165.677 107.127 165.212 107.294C164.746 107.462 164.24 107.481 163.763 107.351C163.286 107.22 162.861 106.945 162.545 106.564L162.543 106.561C162.313 106.282 162.149 105.956 162.063 105.605C161.977 105.254 161.971 104.888 162.046 104.535C162.121 104.181 162.274 103.85 162.495 103.564C162.716 103.278 162.998 103.045 163.321 102.883C163.644 102.722 163.999 102.635 164.361 102.629C164.722 102.624 165.079 102.7 165.407 102.851C165.735 103.003 166.024 103.227 166.254 103.506C166.483 103.785 166.647 104.112 166.732 104.463C166.732 104.463 166.732 104.464 166.733 104.464C166.733 104.464 166.733 104.464 166.733 104.465C166.733 104.465 166.734 104.465 166.734 104.465C166.734 104.465 166.734 104.465 166.735 104.465C166.779 104.651 166.802 104.841 166.802 105.033Z" fill="#6C63FF"/>
<path opacity="0.1" d="M166.802 105.032C166.802 105.527 166.649 106.01 166.364 106.415C166.08 106.819 165.677 107.126 165.212 107.294C164.746 107.461 164.24 107.481 163.763 107.35C163.286 107.22 162.86 106.945 162.545 106.563L162.543 106.561C162.498 106.375 162.476 106.185 162.476 105.994C162.476 105.499 162.628 105.016 162.913 104.611C163.198 104.207 163.6 103.899 164.066 103.732C164.531 103.565 165.037 103.545 165.515 103.676C165.992 103.806 166.417 104.081 166.732 104.463C166.732 104.463 166.732 104.463 166.732 104.464C166.732 104.464 166.733 104.464 166.733 104.464C166.733 104.465 166.733 104.465 166.734 104.465C166.734 104.465 166.734 104.465 166.735 104.465C166.779 104.651 166.802 104.841 166.802 105.032Z" fill="black"/>
<path d="M165.36 108.878C166.687 108.878 167.763 107.802 167.763 106.474C167.763 105.147 166.687 104.071 165.36 104.071C164.032 104.071 162.956 105.147 162.956 106.474C162.956 107.802 164.032 108.878 165.36 108.878Z" fill="#6C63FF"/>
<path d="M124.982 11.5368H112.483V24.0349H124.982V11.5368Z" fill="#F0F0F0"/>
<path d="M161.274 20.6701C160.703 20.6701 160.146 20.5009 159.671 20.184C159.197 19.8671 158.827 19.4166 158.609 18.8896C158.391 18.3626 158.334 17.7827 158.445 17.2232C158.556 16.6637 158.831 16.1498 159.234 15.7465C159.638 15.3431 160.152 15.0684 160.711 14.9571C161.271 14.8458 161.851 14.903 162.378 15.1213C162.905 15.3396 163.355 15.7092 163.672 16.1835C163.989 16.6578 164.158 17.2155 164.158 17.7859C164.157 18.5506 163.853 19.2837 163.312 19.8244C162.772 20.3651 162.039 20.6692 161.274 20.6701ZM161.274 15.3824C160.798 15.3824 160.334 15.5234 159.939 15.7875C159.543 16.0516 159.235 16.4269 159.053 16.8661C158.871 17.3053 158.824 17.7886 158.917 18.2548C159.009 18.721 159.238 19.1493 159.574 19.4854C159.91 19.8216 160.339 20.0505 160.805 20.1432C161.271 20.2359 161.754 20.1883 162.194 20.0064C162.633 19.8245 163.008 19.5165 163.272 19.1212C163.536 18.726 163.677 18.2613 163.677 17.7859C163.677 17.1487 163.423 16.5378 162.973 16.0872C162.522 15.6366 161.911 15.3831 161.274 15.3824Z" fill="#3F3D56"/>
<path d="M97.8223 60.8085H91.5732V54.5594H97.8223V60.8085ZM92.0539 60.3278H97.3416V55.0401H92.0539V60.3278Z" fill="#3F3D56"/>
<path d="M193 107.436H186.751V101.187H193V107.436ZM187.232 106.955H192.519V101.668H187.232V106.955Z" fill="#3F3D56"/>
<path d="M69.7012 65.5352L70.7736 66.1128L74.4226 68.0795L80.3136 71.2535L83.7466 64.8839C84.07 64.2854 84.2721 63.629 84.3415 62.9523C84.4108 62.2756 84.346 61.5919 84.1508 60.9403C83.9556 60.2886 83.6338 59.6819 83.2039 59.1548C82.7739 58.6277 82.2442 58.1905 81.6451 57.8683C80.3647 57.177 78.898 56.9099 77.4561 57.1055C76.0142 57.3011 74.6717 57.9494 73.6219 58.9569L73.6201 58.9587C73.1036 59.4548 72.6677 60.0285 72.3282 60.6591L69.7012 65.5352Z" fill="#2F2E41"/>
<path d="M85.7805 130.495L85.0609 138.411L82.3617 138.771L80.5625 129.775L85.7805 130.495Z" fill="#FFB8B8"/>
<path d="M81.6424 138.771C81.6424 138.771 85.0611 136.972 85.7808 138.411C85.7808 138.411 85.2411 142.73 87.4002 143.269C89.5594 143.809 90.4591 147.588 87.4002 147.948C84.3414 148.308 82.3621 147.228 81.2826 147.228C80.203 147.228 81.2826 143.449 81.2826 143.449L81.6424 138.771Z" fill="#2F2E41"/>
<path d="M64.0088 130.495L64.7286 138.411L67.4275 138.771L69.2268 129.775L64.0088 130.495Z" fill="#FFB8B8"/>
<path d="M68.1469 138.771C68.1469 138.771 64.7282 136.972 64.0085 138.411C64.0085 138.411 64.5482 142.73 62.3891 143.269C60.2299 143.809 59.3302 147.588 62.3891 147.948C65.4479 148.308 67.4272 147.228 68.5067 147.228C69.5863 147.228 68.5067 143.449 68.5067 143.449L68.1469 138.771Z" fill="#2F2E41"/>
<path d="M78.7632 66.9782C81.3469 66.9782 83.4414 64.8836 83.4414 62.2999C83.4414 59.7162 81.3469 57.6217 78.7632 57.6217C76.1795 57.6217 74.085 59.7162 74.085 62.2999C74.085 64.8836 76.1795 66.9782 78.7632 66.9782Z" fill="#FFB8B8"/>
<path d="M63.8291 71.4764L67.6077 77.4142L72.106 77.0543L79.4832 77.5941C79.4832 77.5941 80.1795 76.2015 80.7481 74.8466C81.0594 74.17 81.2988 73.4625 81.4624 72.736C81.6424 71.4764 79.1233 70.2169 79.1233 70.2169C79.1233 70.2169 79.0243 70.1989 78.8588 70.1593C78.6393 70.1072 78.301 70.0208 77.9304 69.8948C77.0937 69.6105 76.0878 69.1283 75.8845 68.4176C75.5247 67.1581 78.2236 65.3587 78.2236 65.3587L74.9849 62.2999C74.9849 62.2999 72.1078 66.2962 68.6135 67.2066C68.4109 67.2602 68.2054 67.3022 67.9981 67.3326C67.9873 67.3344 67.9783 67.3362 67.9675 67.338C64.189 67.8778 63.8291 71.4764 63.8291 71.4764Z" fill="#FFB8B8"/>
<path d="M65.8083 69.8572L63.829 71.4766C63.829 71.4766 62.2096 79.2137 62.7494 81.3729C63.2892 83.5321 62.5695 85.5113 62.5695 85.8712C62.5695 86.2311 60.9501 99.726 60.9501 99.726C60.9501 99.726 57.7113 106.923 61.13 106.204C64.5487 105.484 63.2892 98.2865 63.2892 98.2865L67.4276 85.6913V75.0753L65.8083 69.8572Z" fill="#FFB8B8"/>
<path d="M80.0225 71.2967L81.4619 72.3763L82.1816 87.4906L87.5796 100.446C87.5796 100.446 91.5381 106.743 89.019 106.923C86.5 107.103 84.8806 100.446 84.8806 100.446L80.0225 88.0304L79.3027 75.9749L80.0225 71.2967Z" fill="#FFB8B8"/>
<path d="M71.0255 72.3763C71.0255 72.3763 74.6242 74.8953 80.382 73.9957C80.382 73.9957 82.0014 77.2344 81.1017 79.0338C80.202 80.8331 82.1813 85.1515 82.5412 85.6912C82.901 86.231 87.0395 97.3868 88.4789 109.442C89.9184 121.498 93.8769 129.775 90.4582 130.854C87.0395 131.934 80.0221 133.193 79.3024 132.114C78.5826 131.034 77.5031 104.224 77.5031 104.224L75.5238 114.48C75.5238 114.48 78.2228 131.934 76.2435 132.294C74.2643 132.653 61.849 131.574 62.2088 129.415C62.5687 127.256 66.1673 115.92 66.1673 115.92C66.1673 115.92 65.9874 93.2484 69.5861 88.93C69.5861 88.93 71.0255 86.5909 69.0463 83.5321C67.067 80.4732 67.247 75.615 67.247 75.615C67.247 75.615 68.6864 75.6151 71.0255 72.3763Z" fill="#2F2E41"/>
<path d="M67.998 67.3325L71.0264 73.9954L71.746 73.6356L68.6133 67.2066L67.998 67.3325Z" fill="#2F2E41"/>
<path d="M77.9297 69.8951L80.2022 74.8954L80.7474 74.8468L80.5621 73.9957L78.8581 70.1596C78.6386 70.1074 78.3003 70.021 77.9297 69.8951Z" fill="#2F2E41"/>
<path d="M70.7743 66.1128C70.9473 66.6695 71.2807 67.1627 71.7328 67.5307C72.1849 67.8986 72.7355 68.1251 73.3156 68.1815C73.8958 68.238 74.4797 68.1221 74.9943 67.8482C75.5088 67.5743 75.9311 67.1546 76.2082 66.6418C73.9321 63.6658 75.8843 61.7963 79.582 60.382C79.8605 59.8651 79.9789 59.277 79.9222 58.6926C79.8655 58.1081 79.6362 57.5538 79.2635 57.1C78.2443 56.9697 77.2089 57.0688 76.2329 57.39C75.2569 57.7113 74.3651 58.2467 73.6226 58.9569L73.6208 58.9587L70.9938 63.8313C70.8067 64.1777 70.6909 64.558 70.6532 64.9499C70.6155 65.3417 70.6567 65.7372 70.7743 66.1128Z" fill="#2F2E41"/>
<path d="M75.9735 63.9193C76.3213 63.9193 76.6033 63.4359 76.6033 62.8397C76.6033 62.2435 76.3213 61.7601 75.9735 61.7601C75.6257 61.7601 75.3438 62.2435 75.3438 62.8397C75.3438 63.4359 75.6257 63.9193 75.9735 63.9193Z" fill="#FFB8B8"/>
<path d="M77.8506 61.078L83.2593 63.5286L84.2508 61.3407C84.08 60.541 83.7224 59.7931 83.2072 59.1581L79.4844 57.4721L77.8506 61.078Z" fill="#2F2E41"/>
<path d="M90.8517 109.359C92.1791 109.359 93.2552 108.283 93.2552 106.955C93.2552 105.628 92.1791 104.552 90.8517 104.552C89.5243 104.552 88.4482 105.628 88.4482 106.955C88.4482 108.283 89.5243 109.359 90.8517 109.359Z" fill="#6C63FF"/>
<path d="M13.6889 123.647C14.5564 123.647 15.2597 122.943 15.2597 122.076C15.2597 121.208 14.5564 120.505 13.6889 120.505C12.8214 120.505 12.1182 121.208 12.1182 122.076C12.1182 122.943 12.8214 123.647 13.6889 123.647Z" fill="#FF6584"/>
<path d="M21.6252 130.263H21.1445V148.147H21.6252V130.263Z" fill="#3F3D56"/>
<path d="M21.3846 132.792C22.7814 132.792 23.9138 131.659 23.9138 130.263C23.9138 128.866 22.7814 127.733 21.3846 127.733C19.9878 127.733 18.8555 128.866 18.8555 130.263C18.8555 131.659 19.9878 132.792 21.3846 132.792Z" fill="#3F3D56"/>
<path d="M21.3853 141.285C21.3853 141.285 21.024 133.514 13.6172 134.417L21.3853 141.285Z" fill="#3F3D56"/>
</g>
<defs>
<clipPath id="clip0">
<rect width="193" height="148.295" fill="white"/>
</clipPath>
</defs>
</svg>
