<svg width="37" height="46" viewBox="0 0 37 46" fill="none" xmlns="http://www.w3.org/2000/svg">
<path d="M8.556 32.48C8.708 32.48 8.824 32.528 8.904 32.624C8.992 32.712 9.036 32.832 9.036 32.984V40.58C9.036 40.724 8.996 40.84 8.916 40.928C8.836 41.016 8.724 41.06 8.58 41.06C8.436 41.06 8.328 41.016 8.256 40.928C8.184 40.84 8.148 40.724 8.148 40.58V34.448L5.544 39.44C5.432 39.672 5.268 39.788 5.052 39.788C4.844 39.788 4.68 39.672 4.56 39.44L1.944 34.508V40.58C1.944 40.724 1.904 40.84 1.824 40.928C1.752 41.016 1.644 41.06 1.5 41.06C1.356 41.06 1.244 41.016 1.164 40.928C1.084 40.84 1.044 40.724 1.044 40.58V32.984C1.044 32.832 1.088 32.712 1.176 32.624C1.264 32.528 1.384 32.48 1.536 32.48C1.736 32.48 1.896 32.596 2.016 32.828L5.064 38.672L8.076 32.828C8.14 32.7 8.208 32.612 8.28 32.564C8.36 32.508 8.452 32.48 8.556 32.48ZM13.3778 35.012C14.8418 35.012 15.5738 35.78 15.5738 37.316V40.58C15.5738 40.724 15.5298 40.84 15.4418 40.928C15.3618 41.016 15.2498 41.06 15.1058 41.06C14.9618 41.06 14.8458 41.016 14.7578 40.928C14.6698 40.84 14.6258 40.724 14.6258 40.58V40.004C14.4738 40.348 14.2418 40.616 13.9298 40.808C13.6178 40.992 13.2578 41.084 12.8498 41.084C12.4738 41.084 12.1258 41.008 11.8058 40.856C11.4938 40.704 11.2458 40.492 11.0618 40.22C10.8778 39.948 10.7858 39.648 10.7858 39.32C10.7858 38.88 10.8978 38.54 11.1218 38.3C11.3458 38.052 11.7138 37.876 12.2258 37.772C12.7378 37.66 13.4498 37.604 14.3618 37.604H14.6258V37.208C14.6258 36.728 14.5258 36.376 14.3258 36.152C14.1338 35.928 13.8178 35.816 13.3778 35.816C12.8338 35.816 12.2818 35.964 11.7218 36.26C11.5058 36.396 11.3538 36.464 11.2658 36.464C11.1698 36.464 11.0898 36.428 11.0258 36.356C10.9618 36.284 10.9298 36.192 10.9298 36.08C10.9298 35.968 10.9618 35.872 11.0258 35.792C11.0978 35.704 11.2098 35.616 11.3618 35.528C11.6418 35.368 11.9578 35.244 12.3098 35.156C12.6698 35.06 13.0258 35.012 13.3778 35.012ZM12.9818 40.316C13.4618 40.316 13.8538 40.156 14.1578 39.836C14.4698 39.508 14.6258 39.088 14.6258 38.576V38.228H14.4098C13.7058 38.228 13.1698 38.26 12.8018 38.324C12.4338 38.38 12.1698 38.48 12.0098 38.624C11.8578 38.76 11.7818 38.964 11.7818 39.236C11.7818 39.548 11.8938 39.808 12.1178 40.016C12.3498 40.216 12.6378 40.316 12.9818 40.316ZM20.2451 35.036C20.5811 35.012 20.7491 35.148 20.7491 35.444C20.7491 35.572 20.7131 35.676 20.6411 35.756C20.5691 35.828 20.4451 35.872 20.2691 35.888L19.9091 35.924C19.3731 35.972 18.9731 36.164 18.7091 36.5C18.4531 36.828 18.3251 37.216 18.3251 37.664V40.58C18.3251 40.74 18.2811 40.86 18.1931 40.94C18.1051 41.02 17.9891 41.06 17.8451 41.06C17.7011 41.06 17.5811 41.02 17.4851 40.94C17.3971 40.852 17.3531 40.732 17.3531 40.58V35.516C17.3531 35.364 17.4011 35.248 17.4971 35.168C17.5931 35.08 17.7091 35.036 17.8451 35.036C17.9731 35.036 18.0811 35.08 18.1691 35.168C18.2571 35.248 18.3011 35.36 18.3011 35.504V36.176C18.4691 35.824 18.7051 35.556 19.0091 35.372C19.3211 35.188 19.6771 35.08 20.0771 35.048L20.2451 35.036ZM26.2516 40.232C26.3796 40.352 26.4436 40.48 26.4436 40.616C26.4436 40.736 26.3996 40.84 26.3116 40.928C26.2316 41.016 26.1316 41.06 26.0116 41.06C25.9076 41.06 25.7996 41.012 25.6876 40.916L22.5556 38.216V40.58C22.5556 40.732 22.5076 40.852 22.4116 40.94C22.3236 41.02 22.2116 41.06 22.0756 41.06C21.9316 41.06 21.8116 41.02 21.7156 40.94C21.6276 40.852 21.5836 40.732 21.5836 40.58V32.96C21.5836 32.808 21.6276 32.692 21.7156 32.612C21.8116 32.524 21.9316 32.48 22.0756 32.48C22.2116 32.48 22.3236 32.524 22.4116 32.612C22.5076 32.692 22.5556 32.808 22.5556 32.96V37.832L25.4236 35.204C25.5196 35.108 25.6276 35.06 25.7476 35.06C25.8676 35.06 25.9716 35.104 26.0596 35.192C26.1476 35.28 26.1916 35.384 26.1916 35.504C26.1916 35.64 26.1356 35.76 26.0236 35.864L23.6596 37.976L26.2516 40.232ZM32.0021 39.644C32.0901 39.644 32.1661 39.68 32.2301 39.752C32.2941 39.824 32.3261 39.916 32.3261 40.028C32.3261 40.228 32.1861 40.412 31.9061 40.58C31.6181 40.748 31.3141 40.876 30.9941 40.964C30.6741 41.044 30.3621 41.084 30.0581 41.084C29.1541 41.084 28.4381 40.816 27.9101 40.28C27.3901 39.744 27.1301 39.004 27.1301 38.06C27.1301 37.46 27.2461 36.932 27.4781 36.476C27.7101 36.012 28.0341 35.652 28.4501 35.396C28.8741 35.14 29.3541 35.012 29.8901 35.012C30.6501 35.012 31.2541 35.26 31.7021 35.756C32.1501 36.252 32.3741 36.924 32.3741 37.772C32.3741 37.932 32.3421 38.048 32.2781 38.12C32.2141 38.192 32.1101 38.228 31.9661 38.228H28.1021C28.1741 39.604 28.8261 40.292 30.0581 40.292C30.3701 40.292 30.6381 40.252 30.8621 40.172C31.0861 40.084 31.3261 39.968 31.5821 39.824C31.7901 39.704 31.9301 39.644 32.0021 39.644ZM29.9021 35.768C29.3901 35.768 28.9781 35.928 28.6661 36.248C28.3621 36.568 28.1821 37.02 28.1261 37.604H31.5221C31.5061 37.012 31.3581 36.56 31.0781 36.248C30.7981 35.928 30.4061 35.768 29.9021 35.768ZM36.4711 40.292C36.7511 40.316 36.8911 40.444 36.8911 40.676C36.8911 40.812 36.8391 40.916 36.7351 40.988C36.6391 41.052 36.4911 41.076 36.2911 41.06L35.9671 41.036C35.3271 40.988 34.8551 40.796 34.5511 40.46C34.2471 40.124 34.0951 39.616 34.0951 38.936V35.924H33.2911C33.1551 35.924 33.0471 35.892 32.9671 35.828C32.8951 35.756 32.8591 35.664 32.8591 35.552C32.8591 35.432 32.8951 35.336 32.9671 35.264C33.0471 35.192 33.1551 35.156 33.2911 35.156H34.0951V33.8C34.0951 33.648 34.1391 33.532 34.2271 33.452C34.3151 33.364 34.4351 33.32 34.5871 33.32C34.7311 33.32 34.8471 33.364 34.9351 33.452C35.0231 33.532 35.0671 33.648 35.0671 33.8V35.156H36.3991C36.5271 35.156 36.6271 35.192 36.6991 35.264C36.7791 35.336 36.8191 35.432 36.8191 35.552C36.8191 35.664 36.7791 35.756 36.6991 35.828C36.6271 35.892 36.5271 35.924 36.3991 35.924H35.0671V38.984C35.0671 39.424 35.1551 39.744 35.3311 39.944C35.5151 40.136 35.7871 40.244 36.1471 40.268L36.4711 40.292Z" fill="#0062B8"/>
<path fill-rule="evenodd" clip-rule="evenodd" d="M11.6315 3C11.4425 3 11.274 3.131 11.209 3.328L10.055 6.8335C10.0186 6.94436 10 7.06031 10 7.177V8.5715C10 9.36 10.5755 10 11.2855 10C11.9955 10 12.5715 9.36 12.5715 8.5715C12.5715 9.3605 13.147 10 13.857 10C14.567 10 15.143 9.36 15.143 8.5715C15.143 9.3605 15.7185 10 16.4285 10C17.1385 10 17.7135 9.361 17.7145 8.5725C17.7145 9.361 18.29 10 19 10C19.71 10 20.2855 9.36 20.2855 8.5715C20.2855 9.3605 20.8615 10 21.5715 10C22.2815 10 22.8565 9.361 22.857 8.5725C22.8575 9.361 23.433 10 24.143 10C24.853 10 25.4285 9.36 25.4285 8.5715C25.4285 9.3605 26.004 10 26.7145 10C27.4245 10 28 9.36 28 8.5715V7.177C28 7.06031 27.9814 6.94436 27.945 6.8335L26.791 3.3285C26.726 3.131 26.5575 3 26.3685 3H11.6315Z" fill="#0062B8"/>
<path fill-rule="evenodd" clip-rule="evenodd" d="M11.5 10.7385V14H10.75C10.6837 14 10.6201 14.0263 10.5732 14.0732C10.5263 14.1201 10.5 14.1837 10.5 14.25V14.75C10.5 14.8163 10.5263 14.8799 10.5732 14.9268C10.6201 14.9737 10.6837 15 10.75 15H27.25C27.3163 15 27.3799 14.9737 27.4268 14.9268C27.4737 14.8799 27.5 14.8163 27.5 14.75V14.25C27.5 14.1837 27.4737 14.1201 27.4268 14.0732C27.3799 14.0263 27.3163 14 27.25 14H26.5V10.7385C26.1337 10.6991 25.7866 10.555 25.5 10.3235V14H12.5V10.3235C12.2134 10.555 11.8663 10.6991 11.5 10.7385ZM25.737 9.5C25.786 9.563 25.8395 9.6215 25.897 9.674C26.067 9.83 26.2735 9.938 26.5 9.9805V9.5H25.737ZM11.5 9.98V9.5H12.263C12.2148 9.56249 12.1612 9.6207 12.103 9.674C11.933 9.83 11.7265 9.938 11.5 9.9805V9.98ZM11.25 15.5C11.1837 15.5 11.1201 15.5263 11.0732 15.5732C11.0263 15.6201 11 15.6837 11 15.75V20.5C11 20.6326 11.0527 20.7598 11.1464 20.8536C11.2402 20.9473 11.3674 21 11.5 21H26.5C26.6326 21 26.7598 20.9473 26.8536 20.8536C26.9473 20.7598 27 20.6326 27 20.5V15.75C27 15.6837 26.9737 15.6201 26.9268 15.5732C26.8799 15.5263 26.8163 15.5 26.75 15.5H11.25Z" fill="#0062B8"/>
<path d="M13 12.75C13 12.6837 13.0263 12.6201 13.0732 12.5732C13.1201 12.5263 13.1837 12.5 13.25 12.5H14.75C14.8163 12.5 14.8799 12.5263 14.9268 12.5732C14.9737 12.6201 15 12.6837 15 12.75V13.75C15 13.8163 14.9737 13.8799 14.9268 13.9268C14.8799 13.9737 14.8163 14 14.75 14H13.25C13.1837 14 13.1201 13.9737 13.0732 13.9268C13.0263 13.8799 13 13.8163 13 13.75V12.75Z" fill="#0062B8"/>
<path d="M14 13.25C14 13.1837 14.0263 13.1201 14.0732 13.0732C14.1201 13.0263 14.1837 13 14.25 13H15.75C15.8163 13 15.8799 13.0263 15.9268 13.0732C15.9737 13.1201 16 13.1837 16 13.25V13.75C16 13.8163 15.9737 13.8799 15.9268 13.9268C15.8799 13.9737 15.8163 14 15.75 14H14.25C14.1837 14 14.1201 13.9737 14.0732 13.9268C14.0263 13.8799 14 13.8163 14 13.75V13.25Z" fill="#0062B8"/>
<path d="M18 13.25C18 13.4489 17.921 13.6397 17.7803 13.7803C17.6397 13.921 17.4489 14 17.25 14C17.0511 14 16.8603 13.921 16.7197 13.7803C16.579 13.6397 16.5 13.4489 16.5 13.25C16.5 13.0511 16.579 12.8603 16.7197 12.7197C16.8603 12.579 17.0511 12.5 17.25 12.5C17.4489 12.5 17.6397 12.579 17.7803 12.7197C17.921 12.8603 18 13.0511 18 13.25Z" fill="#0062B8"/>
</svg>
