<svg width="68" height="46" viewBox="0 0 68 46" fill="none" xmlns="http://www.w3.org/2000/svg">
<path d="M40 8C40 6.4087 39.3679 4.88258 38.2426 3.75736C37.1174 2.63214 35.5913 2 34 2C32.4087 2 30.8826 2.63214 29.7574 3.75736C28.6321 4.88258 28 6.4087 28 8C28 15 25 17 25 17H43C43 17 40 15 40 8Z" fill="#888888"/>
<path d="M35.73 21C35.5542 21.3031 35.3019 21.5547 34.9982 21.7295C34.6946 21.9044 34.3504 21.9965 34 21.9965C33.6496 21.9965 33.3054 21.9044 33.0018 21.7295C32.6982 21.5547 32.4458 21.3031 32.27 21" stroke="#888888" stroke-linecap="round" stroke-linejoin="round"/>
<path d="M7.368 32.48C7.512 32.48 7.624 32.528 7.704 32.624C7.784 32.712 7.824 32.832 7.824 32.984V40.556C7.824 40.708 7.78 40.832 7.692 40.928C7.612 41.016 7.496 41.06 7.344 41.06C7.192 41.06 7.06 40.992 6.948 40.856L1.968 34.196V40.556C1.968 40.708 1.924 40.832 1.836 40.928C1.756 41.016 1.644 41.06 1.5 41.06C1.356 41.06 1.244 41.016 1.164 40.928C1.084 40.832 1.044 40.708 1.044 40.556V32.984C1.044 32.832 1.084 32.712 1.164 32.624C1.252 32.528 1.372 32.48 1.524 32.48C1.684 32.48 1.82 32.548 1.932 32.684L6.9 39.344V32.984C6.9 32.832 6.94 32.712 7.02 32.624C7.108 32.528 7.224 32.48 7.368 32.48ZM12.1951 41.084C11.6431 41.084 11.1551 40.96 10.7311 40.712C10.3151 40.464 9.99109 40.112 9.75909 39.656C9.53509 39.192 9.42309 38.656 9.42309 38.048C9.42309 37.44 9.53509 36.908 9.75909 36.452C9.99109 35.988 10.3151 35.632 10.7311 35.384C11.1551 35.136 11.6431 35.012 12.1951 35.012C12.7471 35.012 13.2351 35.136 13.6591 35.384C14.0831 35.632 14.4071 35.988 14.6311 36.452C14.8631 36.908 14.9791 37.44 14.9791 38.048C14.9791 38.656 14.8631 39.192 14.6311 39.656C14.4071 40.112 14.0831 40.464 13.6591 40.712C13.2351 40.96 12.7471 41.084 12.1951 41.084ZM12.1951 40.28C12.7711 40.28 13.2111 40.092 13.5151 39.716C13.8271 39.332 13.9831 38.776 13.9831 38.048C13.9831 37.336 13.8271 36.788 13.5151 36.404C13.2031 36.012 12.7631 35.816 12.1951 35.816C11.6271 35.816 11.1871 36.012 10.8751 36.404C10.5631 36.788 10.4071 37.336 10.4071 38.048C10.4071 38.768 10.5591 39.32 10.8631 39.704C11.1751 40.088 11.6191 40.28 12.1951 40.28ZM19.1156 40.292C19.3956 40.316 19.5356 40.444 19.5356 40.676C19.5356 40.812 19.4836 40.916 19.3796 40.988C19.2836 41.052 19.1356 41.076 18.9356 41.06L18.6116 41.036C17.9716 40.988 17.4996 40.796 17.1956 40.46C16.8916 40.124 16.7396 39.616 16.7396 38.936V35.924H15.9356C15.7996 35.924 15.6916 35.892 15.6116 35.828C15.5396 35.756 15.5036 35.664 15.5036 35.552C15.5036 35.432 15.5396 35.336 15.6116 35.264C15.6916 35.192 15.7996 35.156 15.9356 35.156H16.7396V33.8C16.7396 33.648 16.7836 33.532 16.8716 33.452C16.9596 33.364 17.0796 33.32 17.2316 33.32C17.3756 33.32 17.4916 33.364 17.5796 33.452C17.6676 33.532 17.7116 33.648 17.7116 33.8V35.156H19.0436C19.1716 35.156 19.2716 35.192 19.3436 35.264C19.4236 35.336 19.4636 35.432 19.4636 35.552C19.4636 35.664 19.4236 35.756 19.3436 35.828C19.2716 35.892 19.1716 35.924 19.0436 35.924H17.7116V38.984C17.7116 39.424 17.7996 39.744 17.9756 39.944C18.1596 40.136 18.4316 40.244 18.7916 40.268L19.1156 40.292ZM20.9858 41.06C20.8418 41.06 20.7218 41.02 20.6258 40.94C20.5378 40.852 20.4938 40.732 20.4938 40.58V35.516C20.4938 35.364 20.5378 35.248 20.6258 35.168C20.7218 35.08 20.8418 35.036 20.9858 35.036C21.1298 35.036 21.2458 35.08 21.3338 35.168C21.4218 35.248 21.4658 35.364 21.4658 35.516V40.58C21.4658 40.74 21.4218 40.86 21.3338 40.94C21.2458 41.02 21.1298 41.06 20.9858 41.06ZM20.9858 33.776C20.7938 33.776 20.6378 33.72 20.5178 33.608C20.3978 33.496 20.3378 33.348 20.3378 33.164C20.3378 32.988 20.3978 32.844 20.5178 32.732C20.6378 32.62 20.7938 32.564 20.9858 32.564C21.1778 32.564 21.3338 32.62 21.4538 32.732C21.5738 32.844 21.6338 32.988 21.6338 33.164C21.6338 33.348 21.5738 33.496 21.4538 33.608C21.3338 33.72 21.1778 33.776 20.9858 33.776ZM27.7588 35.156C27.8948 35.156 27.9988 35.192 28.0708 35.264C28.1428 35.336 28.1788 35.432 28.1788 35.552V40.58C28.1788 40.732 28.1308 40.852 28.0348 40.94C27.9468 41.02 27.8348 41.06 27.6988 41.06C27.5548 41.06 27.4348 41.02 27.3388 40.94C27.2508 40.852 27.2068 40.732 27.2068 40.58V35.924H24.5788V40.58C24.5788 40.732 24.5308 40.852 24.4348 40.94C24.3468 41.02 24.2348 41.06 24.0988 41.06C23.9548 41.06 23.8348 41.02 23.7388 40.94C23.6508 40.852 23.6068 40.732 23.6068 40.58V35.924H22.8028C22.6668 35.924 22.5588 35.892 22.4788 35.828C22.4068 35.756 22.3708 35.664 22.3708 35.552C22.3708 35.432 22.4068 35.336 22.4788 35.264C22.5588 35.192 22.6668 35.156 22.8028 35.156H23.6068V34.952C23.6068 34.232 23.7868 33.668 24.1468 33.26C24.5068 32.844 25.0228 32.608 25.6948 32.552L25.9828 32.528C26.3668 32.496 26.5588 32.616 26.5588 32.888C26.5588 33.12 26.4228 33.252 26.1508 33.284L25.8628 33.308C25.4388 33.34 25.1188 33.476 24.9028 33.716C24.6868 33.948 24.5788 34.3 24.5788 34.772V35.156H27.7588ZM27.6988 32.564C27.8828 32.564 28.0348 32.62 28.1548 32.732C28.2828 32.844 28.3468 32.988 28.3468 33.164C28.3468 33.348 28.2868 33.496 28.1668 33.608C28.0468 33.72 27.8908 33.776 27.6988 33.776C27.5068 33.776 27.3508 33.72 27.2308 33.608C27.1108 33.496 27.0508 33.348 27.0508 33.164C27.0508 32.988 27.1108 32.844 27.2308 32.732C27.3508 32.62 27.5068 32.564 27.6988 32.564ZM32.3979 41.084C31.8539 41.084 31.3699 40.96 30.9459 40.712C30.5299 40.464 30.2059 40.112 29.9739 39.656C29.7499 39.2 29.6379 38.672 29.6379 38.072C29.6379 37.472 29.7539 36.94 29.9859 36.476C30.2259 36.012 30.5579 35.652 30.9819 35.396C31.4059 35.14 31.8939 35.012 32.4459 35.012C32.7499 35.012 33.0499 35.056 33.3459 35.144C33.6499 35.224 33.9139 35.344 34.1379 35.504C34.2819 35.6 34.3819 35.696 34.4379 35.792C34.5019 35.88 34.5339 35.98 34.5339 36.092C34.5339 36.204 34.5019 36.296 34.4379 36.368C34.3819 36.44 34.3059 36.476 34.2099 36.476C34.1539 36.476 34.0939 36.46 34.0299 36.428C33.9659 36.396 33.9099 36.364 33.8619 36.332C33.8219 36.3 33.7939 36.28 33.7779 36.272C33.5699 36.136 33.3699 36.028 33.1779 35.948C32.9939 35.868 32.7659 35.828 32.4939 35.828C31.9099 35.828 31.4539 36.028 31.1259 36.428C30.8059 36.82 30.6459 37.368 30.6459 38.072C30.6459 38.776 30.8059 39.32 31.1259 39.704C31.4539 40.088 31.9099 40.28 32.4939 40.28C32.7659 40.28 32.9979 40.24 33.1899 40.16C33.3899 40.08 33.5899 39.972 33.7899 39.836C33.8779 39.78 33.9619 39.732 34.0419 39.692C34.1219 39.652 34.1899 39.632 34.2459 39.632C34.3339 39.632 34.4059 39.668 34.4619 39.74C34.5259 39.812 34.5579 39.904 34.5579 40.016C34.5579 40.12 34.5299 40.216 34.4739 40.304C34.4179 40.384 34.3139 40.476 34.1619 40.58C33.9379 40.732 33.6659 40.856 33.3459 40.952C33.0339 41.04 32.7179 41.084 32.3979 41.084ZM38.1161 35.012C39.5801 35.012 40.3121 35.78 40.3121 37.316V40.58C40.3121 40.724 40.2681 40.84 40.1801 40.928C40.1001 41.016 39.9881 41.06 39.8441 41.06C39.7001 41.06 39.5841 41.016 39.4961 40.928C39.4081 40.84 39.3641 40.724 39.3641 40.58V40.004C39.2121 40.348 38.9801 40.616 38.6681 40.808C38.3561 40.992 37.9961 41.084 37.5881 41.084C37.2121 41.084 36.8641 41.008 36.5441 40.856C36.2321 40.704 35.9841 40.492 35.8001 40.22C35.6161 39.948 35.5241 39.648 35.5241 39.32C35.5241 38.88 35.6361 38.54 35.8601 38.3C36.0841 38.052 36.4521 37.876 36.9641 37.772C37.4761 37.66 38.1881 37.604 39.1001 37.604H39.3641V37.208C39.3641 36.728 39.2641 36.376 39.0641 36.152C38.8721 35.928 38.5561 35.816 38.1161 35.816C37.5721 35.816 37.0201 35.964 36.4601 36.26C36.2441 36.396 36.0921 36.464 36.0041 36.464C35.9081 36.464 35.8281 36.428 35.7641 36.356C35.7001 36.284 35.6681 36.192 35.6681 36.08C35.6681 35.968 35.7001 35.872 35.7641 35.792C35.8361 35.704 35.9481 35.616 36.1001 35.528C36.3801 35.368 36.6961 35.244 37.0481 35.156C37.4081 35.06 37.7641 35.012 38.1161 35.012ZM37.7201 40.316C38.2001 40.316 38.5921 40.156 38.8961 39.836C39.2081 39.508 39.3641 39.088 39.3641 38.576V38.228H39.1481C38.4441 38.228 37.9081 38.26 37.5401 38.324C37.1721 38.38 36.9081 38.48 36.7481 38.624C36.5961 38.76 36.5201 38.964 36.5201 39.236C36.5201 39.548 36.6321 39.808 36.8561 40.016C37.0881 40.216 37.3761 40.316 37.7201 40.316ZM44.7914 40.292C45.0714 40.316 45.2114 40.444 45.2114 40.676C45.2114 40.812 45.1594 40.916 45.0554 40.988C44.9594 41.052 44.8114 41.076 44.6114 41.06L44.2874 41.036C43.6474 40.988 43.1754 40.796 42.8714 40.46C42.5674 40.124 42.4154 39.616 42.4154 38.936V35.924H41.6114C41.4754 35.924 41.3674 35.892 41.2874 35.828C41.2154 35.756 41.1794 35.664 41.1794 35.552C41.1794 35.432 41.2154 35.336 41.2874 35.264C41.3674 35.192 41.4754 35.156 41.6114 35.156H42.4154V33.8C42.4154 33.648 42.4594 33.532 42.5474 33.452C42.6354 33.364 42.7554 33.32 42.9074 33.32C43.0514 33.32 43.1674 33.364 43.2554 33.452C43.3434 33.532 43.3874 33.648 43.3874 33.8V35.156H44.7194C44.8474 35.156 44.9474 35.192 45.0194 35.264C45.0994 35.336 45.1394 35.432 45.1394 35.552C45.1394 35.664 45.0994 35.756 45.0194 35.828C44.9474 35.892 44.8474 35.924 44.7194 35.924H43.3874V38.984C43.3874 39.424 43.4754 39.744 43.6514 39.944C43.8354 40.136 44.1074 40.244 44.4674 40.268L44.7914 40.292ZM46.6615 41.06C46.5175 41.06 46.3975 41.02 46.3015 40.94C46.2135 40.852 46.1695 40.732 46.1695 40.58V35.516C46.1695 35.364 46.2135 35.248 46.3015 35.168C46.3975 35.08 46.5175 35.036 46.6615 35.036C46.8055 35.036 46.9215 35.08 47.0095 35.168C47.0975 35.248 47.1415 35.364 47.1415 35.516V40.58C47.1415 40.74 47.0975 40.86 47.0095 40.94C46.9215 41.02 46.8055 41.06 46.6615 41.06ZM46.6615 33.776C46.4695 33.776 46.3135 33.72 46.1935 33.608C46.0735 33.496 46.0135 33.348 46.0135 33.164C46.0135 32.988 46.0735 32.844 46.1935 32.732C46.3135 32.62 46.4695 32.564 46.6615 32.564C46.8535 32.564 47.0095 32.62 47.1295 32.732C47.2495 32.844 47.3095 32.988 47.3095 33.164C47.3095 33.348 47.2495 33.496 47.1295 33.608C47.0095 33.72 46.8535 33.776 46.6615 33.776ZM51.3826 41.084C50.8306 41.084 50.3426 40.96 49.9186 40.712C49.5026 40.464 49.1786 40.112 48.9466 39.656C48.7226 39.192 48.6106 38.656 48.6106 38.048C48.6106 37.44 48.7226 36.908 48.9466 36.452C49.1786 35.988 49.5026 35.632 49.9186 35.384C50.3426 35.136 50.8306 35.012 51.3826 35.012C51.9346 35.012 52.4226 35.136 52.8466 35.384C53.2706 35.632 53.5946 35.988 53.8186 36.452C54.0506 36.908 54.1666 37.44 54.1666 38.048C54.1666 38.656 54.0506 39.192 53.8186 39.656C53.5946 40.112 53.2706 40.464 52.8466 40.712C52.4226 40.96 51.9346 41.084 51.3826 41.084ZM51.3826 40.28C51.9586 40.28 52.3986 40.092 52.7026 39.716C53.0146 39.332 53.1706 38.776 53.1706 38.048C53.1706 37.336 53.0146 36.788 52.7026 36.404C52.3906 36.012 51.9506 35.816 51.3826 35.816C50.8146 35.816 50.3746 36.012 50.0626 36.404C49.7506 36.788 49.5946 37.336 49.5946 38.048C49.5946 38.768 49.7466 39.32 50.0506 39.704C50.3626 40.088 50.8066 40.28 51.3826 40.28ZM58.5548 35.012C59.9548 35.012 60.6548 35.784 60.6548 37.328V40.58C60.6548 40.732 60.6108 40.852 60.5228 40.94C60.4428 41.02 60.3268 41.06 60.1748 41.06C60.0228 41.06 59.9028 41.02 59.8148 40.94C59.7268 40.852 59.6828 40.732 59.6828 40.58V37.388C59.6828 36.844 59.5748 36.448 59.3588 36.2C59.1508 35.952 58.8148 35.828 58.3508 35.828C57.8148 35.828 57.3868 35.992 57.0668 36.32C56.7468 36.648 56.5868 37.092 56.5868 37.652V40.58C56.5868 40.732 56.5428 40.852 56.4548 40.94C56.3748 41.02 56.2588 41.06 56.1068 41.06C55.9548 41.06 55.8348 41.02 55.7468 40.94C55.6588 40.852 55.6148 40.732 55.6148 40.58V35.516C55.6148 35.372 55.6588 35.256 55.7468 35.168C55.8348 35.08 55.9548 35.036 56.1068 35.036C56.2508 35.036 56.3628 35.08 56.4428 35.168C56.5308 35.256 56.5748 35.368 56.5748 35.504V36.116C56.7668 35.756 57.0348 35.484 57.3788 35.3C57.7228 35.108 58.1148 35.012 58.5548 35.012ZM64.4032 41.084C64.0352 41.084 63.6832 41.04 63.3472 40.952C63.0192 40.864 62.7272 40.74 62.4712 40.58C62.3272 40.484 62.2232 40.396 62.1592 40.316C62.1032 40.228 62.0752 40.124 62.0752 40.004C62.0752 39.9 62.1032 39.816 62.1592 39.752C62.2232 39.68 62.3032 39.644 62.3992 39.644C62.4952 39.644 62.6352 39.704 62.8192 39.824C63.0592 39.968 63.2952 40.084 63.5272 40.172C63.7672 40.252 64.0632 40.292 64.4152 40.292C64.8472 40.292 65.1832 40.216 65.4232 40.064C65.6632 39.912 65.7832 39.692 65.7832 39.404C65.7832 39.228 65.7392 39.088 65.6512 38.984C65.5632 38.872 65.4112 38.776 65.1952 38.696C64.9792 38.608 64.6632 38.52 64.2472 38.432C63.5432 38.28 63.0392 38.076 62.7352 37.82C62.4312 37.564 62.2792 37.216 62.2792 36.776C62.2792 36.432 62.3752 36.128 62.5672 35.864C62.7592 35.6 63.0232 35.392 63.3592 35.24C63.7032 35.088 64.0912 35.012 64.5232 35.012C64.8352 35.012 65.1352 35.056 65.4232 35.144C65.7192 35.224 65.9792 35.34 66.2032 35.492C66.4752 35.684 66.6112 35.884 66.6112 36.092C66.6112 36.196 66.5792 36.284 66.5152 36.356C66.4512 36.428 66.3752 36.464 66.2872 36.464C66.1912 36.464 66.0472 36.396 65.8552 36.26C65.6312 36.116 65.4192 36.004 65.2192 35.924C65.0192 35.844 64.7712 35.804 64.4752 35.804C64.0992 35.804 63.7952 35.888 63.5632 36.056C63.3392 36.224 63.2272 36.448 63.2272 36.728C63.2272 36.904 63.2672 37.048 63.3472 37.16C63.4352 37.264 63.5752 37.36 63.7672 37.448C63.9672 37.528 64.2512 37.608 64.6192 37.688C65.1632 37.808 65.5832 37.94 65.8792 38.084C66.1832 38.228 66.3992 38.404 66.5272 38.612C66.6552 38.82 66.7192 39.084 66.7192 39.404C66.7192 39.908 66.5072 40.316 66.0832 40.628C65.6592 40.932 65.0992 41.084 64.4032 41.084Z" fill="#888888"/>
</svg>
