<svg width="183" height="194" viewBox="0 0 183 194" fill="none" xmlns="http://www.w3.org/2000/svg">
<g clip-path="url(#clip0)">
<path d="M30.0094 130.63V155.467L4.88867 193.534" stroke="#182CE4" stroke-width="0.937716" stroke-miterlimit="10"/>
<path d="M39.4912 130.63V155.467L64.6119 193.534" stroke="#182CE4" stroke-width="0.937716" stroke-miterlimit="10"/>
<path d="M57.3384 122.175H12.1636C9.58741 122.175 7.49902 124.068 7.49902 126.402C7.49902 128.737 9.58741 130.63 12.1636 130.63H57.3384C59.9146 130.63 62.003 128.737 62.003 126.402C62.003 124.068 59.9146 122.175 57.3384 122.175Z" fill="white" stroke="#182CE4" stroke-width="0.78143" stroke-miterlimit="10"/>
<path d="M34.75 131.025V193.592" stroke="#182CE4" stroke-width="0.937716" stroke-miterlimit="10"/>
<path d="M61.9119 62.0198C61.9119 62.0198 60.9637 70.4392 61.666 70.4853C70.3641 71.051 80.3784 72.0226 81.9254 72.5299C84.0354 73.1002 90.174 74.7404 91.0221 75.4506C92.0924 76.3484 92.6148 79.2937 92.6148 79.6565C92.6148 80.0193 92.1042 81.9347 92.1042 81.9347C92.1042 81.9347 90.6285 81.9701 90.6082 80.5143C90.5794 78.7895 88.8272 78.4513 87.6415 78.1316C87.1463 77.9978 85.9453 78.2192 85.8232 78.8848C85.7011 79.5504 87.5839 80.1146 87.9367 80.5512C88.4727 81.2045 88.0826 82.0531 88.0741 82.07L84.6291 80.8863C84.1202 80.7126 81.5318 78.602 80.2783 76.622C80.2783 76.622 55.7683 83.5073 49.6738 80.0424C47.3704 78.7342 47.808 74.5437 48.746 68.1118L61.9119 62.0198Z" fill="#B65A18"/>
<path d="M25.1362 126.707C48.7524 126.731 51.6139 126.914 64.9799 126.375C64.9799 126.375 64.2591 120.33 66.3878 115.499C72.6468 101.295 80.6749 103.83 80.6749 103.83C74.7908 100.789 66.8916 98.0295 48.7371 97.0241C46.9477 92.7814 46.7865 89.2749 46.4439 86.1467L16.3974 86.1067C16.3974 86.1067 12.3571 92.7337 8.36761 106.118C4.49349 119.119 15.663 126.697 25.1362 126.707Z" fill="#353A49"/>
<path d="M88.3972 131.823C89.4404 126.71 88.2157 118.1 79.7025 119.382C71.1893 120.664 72.6938 125.592 72.7023 128.857C72.726 138.254 69.2098 143 68.0598 151.086C66.4722 162.254 69.0266 175.74 71.3216 184.636L69.4405 188.41C69.4405 188.41 72.7091 191.177 80.2504 191.638C87.7917 192.099 82.4181 189.112 82.4181 189.112C78.7306 185.823 76.7087 183.452 77.6586 177.193C78.3388 172.709 86.7926 139.692 88.3972 131.823Z" fill="#B65A18"/>
<path d="M70.2069 186.737C70.2069 186.737 66.3413 193.58 71.2246 193.592C73.3126 193.592 89.5436 193.549 89.5436 193.549C89.5436 193.549 90.1763 190.036 84.8214 189.382C84.0767 189.291 82.3737 189.074 82.3737 189.074C82.3737 189.074 84.3396 191.215 79.9533 190.865C72.6172 190.275 72.546 186.035 70.2069 186.737Z" fill="#353A49"/>
<path d="M75.8203 104.325C83.594 100.93 84.5794 109.819 83.3718 113.966C82.8782 115.68 77.6861 129.282 76.0951 133.879C74.504 138.477 62.5136 165.421 61.2822 181.414C61.2686 181.588 59.474 185.727 55.1487 173.834C53.5441 169.417 57.8287 169.914 57.5861 167.969C56.4158 158.617 54.728 138.754 57.1146 128.001C58.078 123.66 64.2861 109.359 75.8203 104.325Z" fill="#C36F0B"/>
<path d="M57.4569 168.536C57.4569 168.536 49.3593 169.227 51.7339 173.093C52.7517 174.744 61.4243 188.362 61.4243 188.362C61.4243 188.362 64.7726 187.132 62.7813 182.588C62.5031 181.955 61.465 179.688 61.465 179.688C61.465 179.688 60.2777 182.23 58.6307 178.531C56.122 172.919 59.0937 171.556 57.4569 168.536Z" fill="#353A49"/>
<path d="M49.5514 84.6419C49.5514 84.6419 51.558 74.7359 55.176 65.1497C55.176 65.1497 56.4617 64.5656 65.1954 60.538C65.1954 60.538 65.4057 49.247 58.9347 43.8882C54.662 40.3525 45.9113 37.7392 45.9113 37.7392L29.0918 36.926C25.8487 37.0997 17.712 37.9898 10.4523 43.1918C3.27567 48.3323 0.0410156 54.1554 0.0410156 54.1554C0.0410156 54.1554 9.53973 56.1753 16.4534 63.6155L11.6159 84.6419C11.6159 84.6419 17.2116 87.4689 30.2181 87.7763C46.1047 88.1453 49.5514 84.6419 49.5514 84.6419Z" fill="#D1D3E6"/>
<path d="M57.5523 72.63C57.4997 74.4085 52.6333 73.0588 52.6011 73.746C52.5771 73.8635 52.5798 73.9842 52.609 74.1008C52.6381 74.2173 52.6932 74.3273 52.7707 74.4239C52.9946 74.7083 53.1422 75.0803 52.8301 75.6291C52.4128 76.3639 53.8037 76.5514 53.3813 77.7367C52.959 78.9219 53.612 78.7712 53.6934 79.9887C53.7833 81.3645 47.3921 82.559 45.4838 81.8887C45.2953 81.8187 45.127 81.7104 44.9919 81.5721C42.3289 81.6582 3.99142 82.8142 0.960313 78.8604C-2.52029 74.3271 4.58 55.6143 4.58 55.6143C11.3444 57.8863 16.9758 63.6171 16.9758 63.6171L15.2338 70.2349C25.8317 70.733 37.6711 73.9243 43.7622 75.769C43.7961 74.7283 44.0862 74.0703 44.2711 73.3755C44.422 72.8083 45.1497 71.7138 47.6923 71.6569C50.2349 71.6 57.5811 71.7015 57.5523 72.63Z" fill="#C36F0B"/>
<path d="M4.57957 55.614C4.57957 55.614 11.1252 57.2773 16.9754 63.6153L16.3291 66.101C16.3291 66.101 10.674 61.4509 3.15137 60.0136L4.57957 55.614Z" fill="#B65A18"/>
<path d="M63.3228 19.1708C62.1931 21.532 63.0615 22.3206 63.2346 23.0277C63.4042 23.7102 63.2668 27.7178 57.0536 27.6287C56.7806 27.9367 56.593 28.2996 56.5066 28.6869C56.4201 29.0741 56.4373 29.4745 56.5566 29.8546C56.7113 30.3436 57.0737 30.7572 57.5644 31.0044C58.055 31.2517 58.6338 31.3125 59.1739 31.1735C59.586 31.0658 59.9345 30.8149 60.1435 30.4755C60.3525 30.1361 60.4051 29.7356 60.29 29.3611C60.2458 29.2196 60.1712 29.0874 60.0705 28.972C59.9698 28.8567 59.8449 28.7606 59.703 28.6892C59.5611 28.6177 59.4051 28.5724 59.2438 28.5558C59.0826 28.5392 58.9193 28.5517 58.7634 28.5925C58.5297 28.6537 58.3321 28.7961 58.2139 28.9888C58.0957 29.1815 58.0664 29.4087 58.1324 29.6209C58.1562 29.6973 58.1965 29.7688 58.2509 29.831C58.3053 29.8933 58.3727 29.9452 58.4493 29.9838C58.5259 30.0224 58.6102 30.0468 58.6973 30.0558C58.7844 30.0647 58.8725 30.058 58.9567 30.036C59.0433 30.0135 59.1362 30.0232 59.2149 30.0629C59.2937 30.1025 59.3518 30.1689 59.3765 30.2473C59.4013 30.3258 59.3906 30.41 59.3469 30.4813C59.3031 30.5527 59.2299 30.6054 59.1433 30.6278C58.8003 30.716 58.4327 30.6774 58.1211 30.5203C57.8095 30.3633 57.5793 30.1006 57.481 29.79C57.4233 29.6072 57.4059 29.4159 57.4298 29.227C57.4537 29.0381 57.5185 28.8553 57.6204 28.6891C57.7224 28.523 57.8595 28.3766 58.0238 28.2585C58.1882 28.1403 58.3767 28.0527 58.5785 28.0007C59.0659 27.8751 59.5884 27.93 60.0311 28.1534C60.4739 28.3768 60.8006 28.7504 60.9396 29.192C61.1053 29.7222 61.033 30.2903 60.7385 30.7723C60.4439 31.2544 59.951 31.6113 59.3672 31.7654C59.1166 31.8294 58.8575 31.862 58.5971 31.8622C57.9893 31.8611 57.3985 31.6805 56.9142 31.3476C56.43 31.0147 56.0787 30.5477 55.9138 30.0175C55.786 29.6129 55.7512 29.1889 55.8116 28.7716C55.872 28.3544 56.0263 27.9528 56.2649 27.5918C49.2681 27.2028 29.1003 36.9197 29.1003 36.9197C29.1003 36.9197 24.758 38.0603 23.4536 35.5362C23.4536 35.5362 16.5908 35.8606 15.2016 32.0006C14.6503 30.471 14.7945 29.3381 15.1711 28.5264C14.7972 28.7209 14.3798 28.8365 13.9498 28.8646C13.8955 28.8646 13.839 28.8646 13.7802 28.8646C13.0689 28.8639 12.3846 28.6176 11.8665 28.1758C11.3485 27.734 11.0356 27.1299 10.9916 26.4865C10.9588 25.9345 11.1686 25.3932 11.5753 24.9812C11.9819 24.5691 12.5521 24.32 13.1611 24.2882C13.6669 24.263 14.1632 24.4205 14.5412 24.7262C14.9192 25.0319 15.1481 25.4609 15.1779 25.9192C15.2015 26.3022 15.0565 26.678 14.7748 26.9641C14.493 27.2503 14.0975 27.4235 13.675 27.4457C13.319 27.4642 12.9694 27.3538 12.7032 27.1387C12.437 26.9237 12.2759 26.6216 12.2553 26.2989C12.2527 26.2586 12.259 26.2181 12.2737 26.1799C12.2883 26.1418 12.3112 26.1066 12.3409 26.0764C12.3706 26.0462 12.4065 26.0216 12.4467 26.004C12.4869 25.9864 12.5305 25.9761 12.575 25.9738C12.6196 25.9715 12.6642 25.9771 12.7063 25.9905C12.7485 26.0038 12.7873 26.0245 12.8206 26.0514C12.8539 26.0783 12.8811 26.1109 12.9005 26.1473C12.9199 26.1837 12.9312 26.2232 12.9338 26.2636C12.9388 26.3428 12.9609 26.4204 12.999 26.4919C13.0371 26.5634 13.0903 26.6273 13.1557 26.6802C13.2211 26.733 13.2973 26.7736 13.38 26.7997C13.4627 26.8258 13.5503 26.8369 13.6377 26.8324C13.8807 26.8197 14.1083 26.7201 14.2705 26.5556C14.4327 26.391 14.5162 26.1749 14.5028 25.9546C14.4937 25.808 14.4527 25.6644 14.3823 25.5321C14.3119 25.3998 14.2133 25.2815 14.0923 25.1838C13.9713 25.0861 13.8301 25.011 13.677 24.9629C13.5239 24.9147 13.3619 24.8944 13.2001 24.9031C12.9872 24.9141 12.7787 24.9631 12.5867 25.0471C12.3947 25.1312 12.2229 25.2488 12.0811 25.3932C11.9393 25.5376 11.8303 25.7059 11.7603 25.8884C11.6904 26.071 11.6609 26.2643 11.6735 26.4573C11.7067 26.9647 11.9608 27.4395 12.38 27.7773C12.7992 28.1151 13.3491 28.2883 13.9091 28.2589C14.881 28.2082 15.9242 27.3781 16.4687 26.4035C15.646 25.4719 13.8565 23.0584 14.5876 20.4298C15.4543 17.3076 18.845 16.6881 18.845 16.6881C18.845 16.6881 15.7919 10.8697 21.559 8.06884C23.094 7.32328 24.4747 7.06656 25.6807 7.09423C25.5396 6.95735 25.4141 6.808 25.3059 6.64843C25.0679 6.29369 24.9872 5.87037 25.0801 5.46384C25.1729 5.05731 25.4324 4.69782 25.8062 4.45786C25.9603 4.3618 26.1345 4.29533 26.3179 4.26255C26.5014 4.22977 26.6904 4.23137 26.8731 4.26725C27.0612 4.30453 27.2389 4.37609 27.3955 4.47757C27.5521 4.57905 27.6843 4.70833 27.784 4.85755C27.9535 5.10915 28.011 5.40979 27.9449 5.69843C27.8787 5.98708 27.6939 6.24209 27.4278 6.41169C27.3533 6.45756 27.2618 6.47474 27.1734 6.45946C27.085 6.44418 27.0069 6.39769 26.9563 6.33022C26.9056 6.26274 26.8867 6.17981 26.9035 6.09967C26.9204 6.01953 26.9717 5.94873 27.0462 5.90287C27.1688 5.82318 27.2535 5.70425 27.2831 5.57012C27.3127 5.43599 27.285 5.29668 27.2056 5.18037C27.1537 5.10254 27.0848 5.03514 27.0031 4.98227C26.9214 4.92941 26.8287 4.8922 26.7307 4.87292C26.6375 4.85522 26.5414 4.85482 26.4482 4.87173C26.3549 4.88864 26.2663 4.92251 26.1879 4.9713C25.9553 5.12126 25.7945 5.34584 25.7381 5.5994C25.6817 5.85296 25.734 6.11647 25.8843 6.33637C26.0827 6.62998 26.8392 7.5554 28.169 7.12036C28.1346 6.55851 28.2293 5.99629 28.4472 5.46937C28.6069 5.10355 28.8556 4.77513 29.1749 4.50859C29.567 4.19645 30.0414 3.98146 30.5522 3.88447C31.2896 3.75009 32.0479 3.73967 32.7895 3.85373C32.7895 3.85373 33.0388 1.95063 35.3965 1.1774C38.984 -0.000126958 42.351 2.1643 42.351 2.1643C42.351 2.1643 45.438 -1.10386 49.8685 0.391869C53.7087 1.69083 54.1463 4.15042 54.1955 4.77453C54.7547 4.8149 55.3119 4.67737 55.7713 4.38561C56.9145 3.63083 56.4922 2.54093 56.3361 2.23348C56.2192 1.99743 56.0077 1.8105 55.7444 1.71059C55.4811 1.61068 55.1857 1.60527 54.9181 1.69545C54.8294 1.72703 54.7488 1.77467 54.6811 1.83547C54.6135 1.89626 54.5602 1.96892 54.5246 2.04901C54.4878 2.13393 54.4705 2.22475 54.4737 2.31593C54.4769 2.40711 54.5005 2.49674 54.5432 2.57936C54.6049 2.705 54.7173 2.80449 54.8573 2.85737C54.9974 2.91026 55.1545 2.91254 55.2963 2.86375C55.38 2.83358 55.4735 2.83477 55.5562 2.86706C55.6389 2.89934 55.7041 2.96009 55.7374 3.03592C55.7706 3.11175 55.7693 3.19646 55.7337 3.27142C55.6981 3.34637 55.6311 3.40543 55.5474 3.4356C55.243 3.54011 54.9061 3.53567 54.6052 3.42316C54.3044 3.31066 54.062 3.09854 53.9275 2.82993C53.8471 2.67168 53.8031 2.50026 53.7981 2.3261C53.7932 2.15193 53.8274 1.97868 53.8987 1.81689C53.9685 1.65984 54.073 1.51736 54.2057 1.39815C54.3384 1.27895 54.4965 1.18552 54.6704 1.12359C55.1 0.975793 55.5756 0.981909 56.0004 1.1407C56.4252 1.29948 56.7672 1.59901 56.9569 1.9783C57.3895 2.84684 57.4098 4.06587 56.1733 4.88368C56.1326 4.91135 56.0902 4.93748 56.0461 4.96361C56.7008 5.05124 57.3725 5.23878 57.766 5.6277C58.721 6.5731 57.766 7.8321 57.766 7.8321C57.766 7.8321 60.1543 8.22563 60.9142 9.8797C61.674 11.5338 60.4579 12.3992 61.8488 13.5798C63.2396 14.7604 64.4558 16.808 63.3228 19.1708Z" fill="#353A49"/>
<path d="M39.9062 26.5772C39.9062 26.5772 39.952 14.7605 50.2904 14.9188C60.6287 15.0771 56.3034 27.5995 56.3034 27.5995L39.9062 26.5772Z" fill="#182CE4"/>
<path d="M39.9152 26.1836C39.9152 26.1836 37.8883 32.0574 29.0918 36.9243C29.0918 36.9243 38.9993 40.8212 47.0715 37.988L39.9152 26.1836Z" fill="#C36F0B"/>
<path d="M47.0786 37.9876C45.2455 38.6093 43.312 38.9531 41.3556 39.0052C36.9659 35.5388 39.2184 27.7911 39.7748 26.5782C39.8155 26.489 39.8748 26.3768 39.9444 26.2446L47.0786 37.9876Z" fill="#B65A18"/>
<path d="M39.9071 26.5773C39.2202 28.0745 42.906 37.9882 47.0787 37.9882C51.9417 37.9882 61.1062 24.1284 54.2417 20.8218C47.3772 17.5152 40.5602 25.1476 39.9071 26.5773Z" fill="#C36F0B"/>
<path d="M32.2403 81.9102H112.001V85.9516H32.2403C31.6493 85.9516 31.0825 85.739 30.6643 85.3606C30.2461 84.9821 30.0107 84.4688 30.0098 83.9332C30.0098 83.397 30.2448 82.8829 30.6631 82.5038C31.0814 82.1247 31.6487 81.9117 32.2403 81.9117V81.9102Z" fill="white"/>
<path d="M112.001 85.953H32.2403C31.649 85.953 31.0819 85.7403 30.6637 85.3615C30.2454 84.9827 30.0102 84.469 30.0098 83.9331V83.9331C30.0098 83.397 30.2448 82.8828 30.6631 82.5037C31.0814 82.1246 31.6487 81.9116 32.2403 81.9116H112.001" stroke="#182CE4" stroke-width="0.78143" stroke-miterlimit="10"/>
<path d="M85.7486 81.7814H47.3026C47.0953 81.7814 46.8913 81.7339 46.7097 81.6433C46.5282 81.5526 46.3749 81.4218 46.2641 81.2629C46.1534 81.1041 46.0888 80.9224 46.0764 80.7349C46.064 80.5473 46.1042 80.36 46.1933 80.1903L58.0243 57.5837C58.3085 57.0393 58.7575 56.5793 59.3191 56.2574C59.8807 55.9354 60.5317 55.7647 61.1962 55.7651H99.6422C99.8503 55.7643 100.055 55.8114 100.238 55.902C100.42 55.9926 100.574 56.1237 100.685 56.2831C100.797 56.4425 100.861 56.6248 100.874 56.813C100.886 57.0013 100.845 57.1892 100.755 57.3593L88.9205 79.9659C88.6352 80.5092 88.1858 80.9682 87.6244 81.2895C87.063 81.6108 86.4126 81.7814 85.7486 81.7814V81.7814Z" stroke="black" stroke-width="0.156286" stroke-miterlimit="10"/>
<path d="M85.8795 81.7811H47.4335C47.2262 81.7812 47.0222 81.7337 46.8406 81.643C46.659 81.5524 46.5057 81.4215 46.395 81.2627C46.2842 81.1038 46.2197 80.9222 46.2073 80.7346C46.1949 80.5471 46.2351 80.3597 46.3242 80.1901L58.1551 57.5834C58.4398 57.0394 58.889 56.5797 59.4505 56.2578C60.0119 55.9359 60.6626 55.765 61.327 55.7649H99.7731C99.9804 55.7648 100.184 55.8124 100.366 55.903C100.548 55.9937 100.701 56.1245 100.812 56.2833C100.922 56.4422 100.987 56.6238 100.999 56.8114C101.012 56.9989 100.971 57.1863 100.882 57.3559L89.0514 79.9656C88.7664 80.5092 88.317 80.9684 87.7556 81.2897C87.1941 81.6111 86.5436 81.7815 85.8795 81.7811Z" fill="#EAEEFF" stroke="#182CE4" stroke-width="0.937716" stroke-miterlimit="10"/>
<path d="M47.7637 81.2123L59.3572 59.0561C59.6364 58.523 60.0767 58.0726 60.6271 57.7572C61.1774 57.4418 61.8152 57.2744 62.4663 57.2744H98.2782C98.4814 57.2745 98.6814 57.3211 98.8594 57.4101C99.0373 57.499 99.1876 57.6273 99.2961 57.7831C99.4047 57.9388 99.4679 58.1169 99.4801 58.3008C99.4922 58.4847 99.4527 58.6684 99.3654 58.8347L88.3724 79.8487C88.1939 80.1903 87.9126 80.4793 87.5609 80.6825C87.2092 80.8856 86.8014 80.9947 86.3844 80.9971L47.7637 81.2123Z" fill="white"/>
<path d="M65.7471 68.9683V81.2124H73.6022L65.7471 68.9683Z" fill="#EAEEFF"/>
<path d="M94.425 81.7211H74.2555L66.4004 69.4785H86.5699L94.425 81.7211Z" stroke="black" stroke-width="0.156286" stroke-miterlimit="10"/>
<path d="M93.0826 81.7211H74.3531L66.498 69.4785H85.2275L93.0826 81.7211Z" fill="#A8AEE5"/>
<path d="M94.9488 81.7211H76.2194L68.3643 69.4785H87.0937L94.9488 81.7211Z" fill="white"/>
<path d="M94.425 81.7843H74.2555L66.4004 69.5417H86.5699L94.425 81.7843Z" stroke="#182CE4" stroke-width="0.937716" stroke-miterlimit="10"/>
</g>
<g clip-path="url(#clip1)">
<path d="M135.376 172.408H159.962" stroke="#424D76" stroke-width="0.786308" stroke-miterlimit="10" stroke-linecap="round"/>
<path d="M126.851 119.369L170.06 188.528" stroke="#424D76" stroke-width="0.786308" stroke-miterlimit="10" stroke-linecap="round"/>
<path d="M168.488 119.369L125.278 188.528" stroke="#424D76" stroke-width="0.786308" stroke-miterlimit="10" stroke-linecap="round"/>
<path d="M177.44 113.617C177.44 114.206 176.099 114.76 173.742 115.241C168.67 116.277 158.895 116.979 147.671 116.979C136.447 116.979 126.672 116.277 121.603 115.239C119.244 114.758 117.904 114.204 117.904 113.615C117.904 111.759 131.232 110.252 147.674 110.252C164.116 110.252 177.44 111.759 177.44 113.617Z" fill="white" stroke="#182CE4" stroke-width="0.786308" stroke-miterlimit="10"/>
<path d="M177.439 113.616V116.865C177.439 118.721 164.109 120.228 147.669 120.228C131.229 120.228 117.899 118.723 117.899 116.865V113.616C117.899 114.206 119.241 114.76 121.598 115.241C126.67 116.277 136.444 116.979 147.669 116.979C158.894 116.979 168.668 116.277 173.74 115.239C176.097 114.76 177.439 114.206 177.439 113.616Z" fill="#FFD880" stroke="#182CE4" stroke-width="0.786308" stroke-miterlimit="10"/>
<path d="M142.868 164.664C144.184 165.403 147.001 165.485 147.502 167.383C148.004 169.281 145.247 176.795 145.686 179.448C146.125 182.101 146.085 187.766 141.616 188.378C136.67 189.056 132.913 187.393 132.913 185.544C132.913 183.696 135.794 181.598 136.227 178.458C136.659 175.318 137.799 168.543 137.799 168.543L142.868 164.664Z" fill="#182CE4"/>
<path d="M136.56 172.936C136.56 172.936 138.646 171.157 141.847 172.936" stroke="white" stroke-width="0.629046" stroke-linecap="round" stroke-linejoin="round"/>
<path d="M136.088 175.102C136.088 175.102 138.175 173.323 141.375 175.102" stroke="white" stroke-width="0.629046" stroke-linecap="round" stroke-linejoin="round"/>
<path d="M135.616 177.267C135.616 177.267 137.703 175.488 140.903 177.267" stroke="white" stroke-width="0.629046" stroke-linecap="round" stroke-linejoin="round"/>
<path d="M159.734 173.991C158.898 175.194 154.073 178.15 154.326 179.505C154.579 180.86 159.022 184.802 159.335 186.895C159.648 188.988 159.211 192.129 161.088 193.054C162.966 193.979 172.922 194.039 174.55 193.054C176.178 192.069 174.424 188.927 172.671 188.25C170.917 187.572 166.223 179.875 166.493 175.133L159.734 173.991Z" fill="#182CE4"/>
<path d="M168.555 179.549C168.555 179.549 166.468 177.77 163.268 179.549" stroke="white" stroke-width="0.629046" stroke-linecap="round" stroke-linejoin="round"/>
<path d="M169.342 181.714C169.342 181.714 167.255 179.935 164.055 181.714" stroke="white" stroke-width="0.629046" stroke-linecap="round" stroke-linejoin="round"/>
<path d="M170.285 183.88C170.285 183.88 168.198 182.101 164.998 183.88" stroke="white" stroke-width="0.629046" stroke-linecap="round" stroke-linejoin="round"/>
<path d="M129.818 90.7729C129.818 90.7729 101 102.059 101 111.768C101 129.082 125.575 160.957 130.604 160.479C135.634 160.001 139.02 156.012 138.826 153.919C138.633 151.826 129.548 124.894 123.056 115.76C123.056 115.76 142.89 110.811 145.502 110.718C148.114 110.625 161.56 117.759 161.753 118.044C161.947 118.328 154.802 137.62 158.948 162.763C159.528 166.283 170.362 167.044 171.426 165.618C172.491 164.192 184.479 114.523 182.84 110.527C181.202 106.532 167.429 95.5959 159.105 91.2369C153.107 88.0968 129.818 90.7729 129.818 90.7729Z" fill="#424D76"/>
<path d="M168.102 170.668C167.922 171.213 167.072 173.776 166.493 175.133C165.939 176.427 159.043 175.988 159.731 173.989C160.317 172.288 160.327 169.968 160.316 169.315C161.445 169.756 164.647 170.862 168.102 170.668Z" fill="#C36F0B"/>
<path d="M168.234 170.66L170.161 166.147C170.161 166.147 163.907 166.911 159.734 164.075L159.892 169.137C159.892 169.137 164.229 171.08 168.234 170.66Z" fill="#182CE4"/>
<path d="M140.024 159.338C140.024 159.338 142.305 163.986 142.868 164.663C143.431 165.341 140.301 168.789 137.798 168.543L133.797 163.239C133.797 163.239 138.089 162.45 140.024 159.338Z" fill="#C36F0B"/>
<path d="M138.571 155.26L140.182 159.338C140.182 159.338 137.683 162.748 133.482 163.394L130.604 160.479C130.604 160.479 135.994 159.84 138.571 155.26Z" fill="#182CE4"/>
<path d="M157.037 32.6382C159.581 34.4774 166.494 37.6933 170.797 40.6555C174.268 43.0453 177.364 53.4942 177.364 53.4942C177.364 53.4942 172.532 58.342 164.414 60.243C164.414 60.243 159.775 74.3192 158.035 90.759C158.035 90.759 143.151 96.1729 129.717 90.759C129.717 90.759 124.304 60.6236 123.628 60.441C122.952 60.2585 112.922 57.2314 109.632 52.382C109.632 52.382 113.511 41.3887 118.8 39.2339C124.547 36.892 132.204 33.6824 134.868 32.2732C136.226 31.5431 157.037 32.6382 157.037 32.6382Z" fill="#EAEAFF"/>
<path d="M121.472 38.1279L110.19 53.0982C110.067 52.9543 109.949 52.8089 109.841 52.6604L120.489 38.5347L121.472 38.1279Z" fill="white"/>
<path d="M126.989 35.8198L112.419 55.1553C112.272 55.0454 112.129 54.9356 111.989 54.8242L125.986 36.2498L126.989 35.8198Z" fill="white"/>
<path d="M132.627 33.3481L114.955 56.7935C114.798 56.7038 114.641 56.6141 114.483 56.5197L131.592 33.8184C131.955 33.6544 132.295 33.4982 132.627 33.3481Z" fill="white"/>
<path d="M137.394 32.0305L117.683 58.1813C117.517 58.1055 117.35 58.0266 117.182 57.9477L136.698 32.0491C136.918 32.0413 137.149 32.0336 137.394 32.0305Z" fill="white"/>
<path d="M141.163 32.0381L120.561 59.3815L120.028 59.1788L140.493 32.0288L141.163 32.0381Z" fill="white"/>
<path d="M144.876 32.1296L123.554 60.4104C123.446 60.3779 123.257 60.3207 123.004 60.2403L144.206 32.1111C144.428 32.1157 144.648 32.1219 144.876 32.1296Z" fill="white"/>
<path d="M148.548 32.2574L124.602 64.0247C124.55 63.7834 124.499 63.5514 124.444 63.3287L147.884 32.2373L148.548 32.2574Z" fill="white"/>
<path d="M152.208 32.4093L125.421 67.9478C125.373 67.708 125.325 67.4714 125.278 67.2393L151.552 32.3799L152.208 32.4093Z" fill="white"/>
<path d="M155.854 32.5795L126.207 71.914C126.16 71.6758 126.113 71.436 126.067 71.1993L155.2 32.5486L155.854 32.5795Z" fill="white"/>
<path d="M158.758 33.7363L126.971 75.9076C126.927 75.6679 126.882 75.4281 126.836 75.1884L158.288 33.4563C158.439 33.5476 158.596 33.6404 158.758 33.7363Z" fill="white"/>
<path d="M161.411 35.2232L127.734 79.9128C127.688 79.6746 127.644 79.4349 127.599 79.192L160.93 34.9587C161.089 35.0485 161.249 35.1366 161.411 35.2232Z" fill="white"/>
<path d="M164.089 36.6801L128.472 83.9328C128.429 83.6961 128.385 83.4548 128.34 83.2104L163.609 36.4187L164.089 36.6801Z" fill="white"/>
<path d="M166.748 38.1607L129.211 87.9687C129.169 87.7383 129.126 87.5047 129.079 87.2433L166.273 37.8977L166.748 38.1607Z" fill="white"/>
<path d="M169.352 39.712L130.616 91.1087L130.093 90.903L168.894 39.4243L169.352 39.712Z" fill="white"/>
<path d="M171.768 41.5264L133.681 92.0476C133.492 92.0012 133.305 91.9502 133.116 91.8929L171.378 41.1289C171.507 41.2557 171.634 41.3857 171.768 41.5264Z" fill="white"/>
<path d="M173.56 44.1454L136.954 92.716C136.753 92.6866 136.55 92.6541 136.349 92.617L173.266 43.6365C173.365 43.802 173.462 43.9737 173.56 44.1454Z" fill="white"/>
<path d="M164.329 60.4998C164.238 60.7875 164.076 61.3041 163.857 62.0234L140.449 93.0869C140.234 93.073 140.02 93.0591 139.803 93.0405L164.329 60.4998Z" fill="white"/>
<path d="M175.048 47.1784L165.392 59.9893C165.115 60.0651 164.834 60.144 164.551 60.2059L174.795 46.6123C174.88 46.8041 174.965 46.9928 175.048 47.1784Z" fill="white"/>
<path d="M162.089 68.4832C161.978 68.9163 161.867 69.3648 161.756 69.8243L144.176 93.1505C143.947 93.1505 143.719 93.1598 143.488 93.1613L162.089 68.4832Z" fill="white"/>
<path d="M176.349 50.4625L170.667 58.0064C170.33 58.1704 169.983 58.3328 169.621 58.4921L176.129 49.8577C176.204 50.0649 176.278 50.2722 176.349 50.4625Z" fill="white"/>
<path d="M160.429 75.6943C160.344 76.0996 160.259 76.5121 160.175 76.9318L148.156 92.8797C147.912 92.906 147.668 92.9323 147.42 92.9555L160.429 75.6943Z" fill="white"/>
<path d="M159.186 82.3564C159.125 82.7354 159.062 83.1159 159.002 83.4996L152.424 92.2237C152.168 92.2732 151.903 92.3243 151.638 92.3784L159.186 82.3564Z" fill="white"/>
<path d="M181.989 78.472C181.634 84.9688 169.106 91.0014 162.5 93.7393C162.281 95.085 161.383 95.6744 159.656 96.1121C156.057 97.0248 156.395 99.3605 156.209 99.806C155.918 100.516 152.367 101.325 151.513 100.734C151.006 100.38 152.44 95.9312 153.256 94.3673C153.764 93.3944 157.167 91.5521 159.399 90.7585C159.399 90.7585 170.721 77.2593 172.272 76.4983C172.272 76.4983 168.084 65.2064 166.332 61.1429C166.082 60.5597 165.881 60.1266 165.75 59.8961C165.75 59.8961 172.041 58.0399 176.296 54.4358C176.296 54.4358 176.682 55.3809 177.249 56.9355C178.959 61.6162 182.349 71.8346 181.989 78.472Z" fill="#C36F0B"/>
<path d="M177.248 56.9328C176.367 57.8532 173.69 59.847 166.331 61.1402C166.079 60.5586 165.878 60.1239 165.747 59.8934C165.747 59.8934 172.038 58.0372 176.295 54.4331C176.295 54.4331 176.678 55.3767 177.248 56.9328Z" fill="#B65A18"/>
<path d="M136.675 100.578C135.72 100.993 132.869 100.216 132.608 99.8047C132.347 99.3932 131.979 96.8347 129.162 95.9561C127.146 95.3266 126.231 94.7001 126.266 92.7434C120.404 90.7742 104.818 84.9334 104.112 78.3021C103.64 73.8782 108.344 61.2235 110.308 56.1824C110.822 54.866 111.148 54.0679 111.148 54.0679C115.679 57.7803 121.559 59.7169 121.559 59.7169L121.073 61.0271L115.4 76.3067C117.983 77.2704 127.387 88.6303 128.853 90.4138C131.908 90.9954 135.181 93.0852 135.563 94.2113C135.964 95.3915 137.658 100.15 136.675 100.578Z" fill="#C36F0B"/>
<path d="M111.149 54.0635C115.678 57.7759 121.56 59.7125 121.56 59.7125L121.074 61.0211C117.968 60.5385 112.867 59.3583 110.31 56.1765C110.822 54.8616 111.149 54.0635 111.149 54.0635Z" fill="#B65A18"/>
<path d="M166.956 104.818H121.421L113.756 75.184C113.638 74.7797 113.617 74.3538 113.695 73.9401C113.772 73.5264 113.947 73.1362 114.205 72.8003C114.462 72.4645 114.796 72.1922 115.179 72.0051C115.562 71.818 115.984 71.7211 116.412 71.7222H171.971C172.398 71.7221 172.82 71.8196 173.202 72.0072C173.584 72.1947 173.917 72.4671 174.174 72.8028C174.431 73.1385 174.605 73.5284 174.683 73.9416C174.76 74.3549 174.739 74.7802 174.621 75.184L166.956 104.818Z" fill="white" stroke="#182CE4" stroke-width="1.10083" stroke-miterlimit="10"/>
<path d="M165.575 104.54H122.8L115.599 76.6966C115.127 75.0678 114.794 73.1389 116.516 73.1389H171.859C173.581 73.1389 173.253 75.0709 172.776 76.6966L165.575 104.54Z" fill="#182CE4"/>
<path d="M146.792 91.223H141.585C141.41 91.2228 141.24 91.1653 141.102 91.0597C140.965 90.9541 140.866 90.8064 140.823 90.6398L140.202 87.3404C140.187 87.2875 140.184 87.2318 140.195 87.1777C140.205 87.1237 140.228 87.0727 140.261 87.0287C140.295 86.9848 140.339 86.9492 140.389 86.9246C140.439 86.9001 140.494 86.8873 140.55 86.8872H147.826C147.882 86.8873 147.937 86.9001 147.987 86.9246C148.038 86.9492 148.081 86.9848 148.115 87.0287C148.148 87.0727 148.171 87.1237 148.182 87.1777C148.192 87.2318 148.189 87.2875 148.174 87.3404L147.55 90.6445C147.506 90.8097 147.408 90.956 147.271 91.0606C147.134 91.1653 146.965 91.2223 146.792 91.223Z" stroke="white" stroke-width="0.94357" stroke-linejoin="round"/>
<path d="M151.108 23.512C151.108 23.512 150.85 29.0806 157.037 32.6383C157.037 32.6383 150.903 37.0313 145.825 42.6741C145.825 42.6741 140.384 36.1295 134.872 32.2593C134.872 32.2593 140.283 28.0751 140.283 23.5135L151.108 23.512Z" fill="#B65A18"/>
<path d="M156.374 20.4459C155.752 21.2472 154.631 22.7492 154.09 23.8273C153.128 28.9613 149.844 32.3581 145.681 32.3581C142.074 32.3581 139.636 28.3796 138.513 24.6812C138.487 24.614 138.465 24.5453 138.447 24.4754C138.169 23.4561 136.661 21.4282 135.903 20.4537C135.843 20.3761 135.8 20.2868 135.778 20.1918C135.756 20.0968 135.755 19.9982 135.775 19.9027C135.795 19.8072 135.835 19.717 135.893 19.638C135.951 19.5591 136.026 19.4933 136.112 19.4451C137.037 18.9238 137.516 19.3028 137.768 19.7978C137.634 16.0993 137.79 12.2183 139.979 12.1967C142.495 12.1735 150.863 12.011 152.313 12.4875C153.56 12.8958 154.383 14.6144 154.386 20.1072C154.582 19.4884 155.054 18.8187 156.164 19.4451C156.249 19.4934 156.323 19.5589 156.38 19.6372C156.438 19.7155 156.478 19.8048 156.497 19.8994C156.517 19.9939 156.516 20.0915 156.495 20.1857C156.474 20.2799 156.432 20.3686 156.374 20.4459Z" fill="#C36F0B"/>
<path d="M157.877 13.7157C156.213 15.773 154.243 20.5357 154.243 20.5357C154.243 20.5357 154.958 13.1635 152.058 13.2439C150.679 13.281 147.905 15.1821 145 14.8727C142.588 14.6159 139.575 11.3954 138.334 13.5007C137.647 15.114 137.696 17.6462 137.799 20.2511C137.059 16.9176 135.527 14.6995 134.686 13.3754C132.918 12.4736 131.531 10.5431 131.93 8.5802C132.61 5.25915 135.212 5.44477 135.212 5.44477C139.602 5.8918 137.04 3.3751 142.36 0.997617C147.68 -1.37987 153.732 0.870777 154.252 3.73551C154.611 5.69999 155.839 4.71621 157.762 5.59172C160.464 6.83228 159.832 11.2918 157.877 13.7157Z" fill="#182CE4"/>
<path d="M142.026 15.945C149.474 16.8731 150.213 12.8962 153.42 13.3772" stroke="#182CE4" stroke-width="0.471785" stroke-miterlimit="10"/>
</g>
<defs>
<clipPath id="clip0">
<rect width="112" height="193.77" fill="white"/>
</clipPath>
<clipPath id="clip1">
<rect width="81.9962" height="193.77" fill="white" transform="translate(101)"/>
</clipPath>
</defs>
</svg>
