<svg width="183" height="194" viewBox="0 0 183 194" fill="none" xmlns="http://www.w3.org/2000/svg">
<g clip-path="url(#clip0)">
<path d="M120.177 51.0586C118.508 52.4769 116.685 53.6208 114.757 54.4589C114.258 54.6812 113.751 54.8858 113.241 55.0696H90.6483C90.5509 54.865 90.4534 54.6634 90.3561 54.4589C88.403 50.3352 86.6148 46.0485 86.1153 41.3852C85.5283 35.9008 87.1742 29.6901 91.2427 26.9953C91.7761 26.6429 92.3407 26.3615 92.9261 26.1563C93.1683 26.0704 93.4156 25.9992 93.6654 25.9369C95.1905 25.5352 96.7782 25.6228 98.2652 26.1908C99.7523 26.7587 101.085 27.7866 102.127 29.1686C103.168 30.5507 103.881 32.2371 104.191 34.0543C104.501 35.8716 104.399 37.7543 103.893 39.5087C107.342 35.3108 106.698 28.5043 105.509 22.8153C104.317 17.1233 102.874 10.794 105.299 5.68313C106.645 2.84014 109.015 1.07327 111.673 0.364754C111.755 0.344002 111.838 0.323242 111.918 0.30249C115.086 -0.457744 118.379 0.227114 121.141 2.22055C126.224 6.02407 128.836 13.2339 129.683 20.2984C131.049 31.6645 128.027 44.3468 120.177 51.0586Z" fill="#F2F2F2"/>
<path d="M95.1779 29.7299C96.8595 34.2268 97.3962 39.3165 96.7085 44.2459C96.1728 47.9681 94.9732 51.4698 93.2084 54.4631C93.0876 54.6662 92.9645 54.8694 92.8369 55.0696H92C92.1343 54.8694 92.2663 54.6692 92.3938 54.4631C93.9761 51.9441 95.1279 49.0066 95.7709 45.85C96.4138 42.6935 96.5329 39.3918 96.12 36.1694C95.6375 32.6059 94.5226 29.2425 92.8661 26.3527C93.0831 26.2673 93.3047 26.1966 93.5285 26.1348C94.1582 27.2665 94.7102 28.4696 95.1779 29.7299Z" fill="white"/>
<path d="M117.821 32.7213C117.617 35.2417 117.1 37.7137 116.288 40.0595C115.538 42.1349 114.528 44.0677 113.292 45.7941C110.721 49.3213 107.464 52.073 103.796 53.8177C103.336 54.0443 102.868 54.2589 102.4 54.4556C101.881 54.6762 101.359 54.8808 100.833 55.0696H98C98.6943 54.8878 99.3809 54.6851 100.062 54.4556C101.746 53.8969 103.385 53.1679 104.961 52.2768C108.369 50.3839 111.327 47.5385 113.577 43.9908C115.99 40.0893 117.056 35.3949 117.236 30.623C117.378 25.483 116.919 20.3444 115.871 15.3506C114.856 10.2578 113.313 5.33002 111.275 0.677255C111.23 0.571918 111.22 0.450103 111.249 0.336958C111.278 0.223814 111.343 0.127974 111.43 0.0692208C111.466 0.039943 111.507 0.0193311 111.55 0.00858507C111.592 -0.00216092 111.637 -0.0028246 111.68 0.00662676C111.722 0.0205628 111.761 0.045105 111.795 0.0785572C111.828 0.11201 111.855 0.153568 111.873 0.20035C112.125 0.775615 112.371 1.35087 112.608 1.93208C114.583 6.77761 116.038 11.8916 116.939 17.1568C117.811 22.2357 118.279 27.547 117.821 32.7213Z" fill="white"/>
<path d="M148.258 64.536C154.716 64.536 159.95 59.6497 159.95 53.6222C159.95 47.5947 154.716 42.7085 148.258 42.7085C141.8 42.7085 136.565 47.5947 136.565 53.6222C136.565 59.6497 141.8 64.536 148.258 64.536Z" fill="#2F2E41"/>
<path d="M145.485 189.851L140.366 189.851L137.93 171.419L145.486 171.42L145.485 189.851Z" fill="#A0616A"/>
<path d="M146.787 194.482L130.279 194.481V194.286C130.279 193.499 130.445 192.719 130.768 191.991C131.091 191.264 131.565 190.603 132.161 190.046C132.758 189.489 133.466 189.047 134.246 188.746C135.025 188.444 135.861 188.289 136.705 188.289H136.705L146.788 188.29L146.787 194.482Z" fill="#2F2E41"/>
<path d="M179.966 185.777L175.086 187.221L166.795 170.339L173.998 168.207L179.966 185.777Z" fill="#A0616A"/>
<path d="M182.711 189.825L166.975 194.483L166.912 194.297C166.657 193.546 166.563 192.756 166.635 191.971C166.707 191.186 166.944 190.423 167.332 189.723C167.721 189.024 168.253 188.403 168.898 187.896C169.544 187.389 170.29 187.005 171.094 186.767L171.095 186.767L180.705 183.923L182.711 189.825Z" fill="#2F2E41"/>
<path d="M145.057 184.977H140.677C140.236 184.977 139.809 184.833 139.471 184.569C139.133 184.304 138.905 183.937 138.828 183.532L128.388 116.953L159.48 117.941L179.475 179.081C179.547 179.322 179.562 179.576 179.52 179.823C179.478 180.071 179.379 180.307 179.231 180.516C179.082 180.725 178.888 180.902 178.66 181.035C178.432 181.168 178.176 181.254 177.91 181.286L172.266 183.282C171.867 183.328 171.462 183.252 171.113 183.065C170.764 182.879 170.488 182.593 170.327 182.249L145.875 130.539C145.816 130.415 145.712 130.313 145.582 130.252C145.451 130.191 145.302 130.175 145.16 130.206C145.018 130.236 144.892 130.312 144.804 130.421C144.715 130.529 144.67 130.662 144.676 130.798L146.935 183.152C146.945 183.388 146.904 183.624 146.814 183.845C146.724 184.066 146.588 184.268 146.412 184.438C146.237 184.608 146.026 184.744 145.793 184.837C145.561 184.929 145.31 184.977 145.057 184.977Z" fill="#2F2E41"/>
<path d="M148.466 66.0264C154.13 66.0264 158.722 61.7403 158.722 56.453C158.722 51.1658 154.13 46.8796 148.466 46.8796C142.801 46.8796 138.209 51.1658 138.209 56.453C138.209 61.7403 142.801 66.0264 148.466 66.0264Z" fill="#A0616A"/>
<path d="M147.091 124.587C141.785 124.588 135.407 123.336 128.564 119.342C128.211 119.137 127.942 118.828 127.797 118.465C127.651 118.101 127.639 117.703 127.761 117.333L134.476 97.0543L134.393 80.5535C134.652 77.9137 135.799 75.4183 137.671 73.4243C139.542 71.4304 142.041 70.0402 144.811 69.4528C144.932 69.4265 145.055 69.4014 145.179 69.3763C147.263 68.9472 149.427 68.9988 151.484 69.5265C153.541 70.0542 155.43 71.0421 156.986 72.4047C158.581 73.7795 159.799 75.4922 160.537 77.3984C161.275 79.3046 161.511 81.3485 161.226 83.3577L159.534 107.597L161.829 119.738C161.901 120.105 161.844 120.485 161.667 120.82C161.49 121.155 161.203 121.428 160.847 121.598C156.573 123.581 151.863 124.605 147.091 124.587Z" fill="#182CE4"/>
<path d="M139.534 105.187C139.324 105.099 139.106 105.026 138.883 104.969L132.311 86.6379L135.639 83.1158L130.601 77.7336L124.061 83.4345C123.532 83.8951 123.178 84.5031 123.052 85.1675C122.925 85.8318 123.033 86.5166 123.359 87.1189L133.978 106.75C133.509 107.456 133.282 108.279 133.326 109.109C133.37 109.938 133.684 110.736 134.226 111.395C134.768 112.055 135.512 112.544 136.359 112.799C137.206 113.054 138.116 113.062 138.969 112.823C139.821 112.583 140.575 112.107 141.13 111.458C141.685 110.808 142.016 110.016 142.077 109.188C142.139 108.359 141.928 107.532 141.474 106.817C141.02 106.103 140.343 105.534 139.534 105.187V105.187Z" fill="#A0616A"/>
<path d="M131.951 85.9996L125.74 79.3004C125.564 79.1098 125.433 78.8859 125.357 78.6439C125.282 78.402 125.263 78.1476 125.302 77.8982C125.341 77.6489 125.438 77.4103 125.585 77.1988C125.731 76.9872 125.925 76.8078 126.153 76.6725L134.139 71.9348C135.189 71.0964 136.552 70.6809 137.93 70.7794C139.308 70.8778 140.587 71.4821 141.488 72.4598C142.389 73.4376 142.838 74.7089 142.736 75.995C142.635 77.2812 141.991 78.4772 140.946 79.3208L134.796 85.9958C134.62 86.1869 134.402 86.3403 134.157 86.4456C133.911 86.5508 133.644 86.6055 133.374 86.6059C133.104 86.6062 132.837 86.5523 132.592 86.4476C132.346 86.343 132.127 86.1902 131.951 85.9996V85.9996Z" fill="#182CE4"/>
<path d="M136.141 47.3054C135.328 47.7267 134.617 48.3 134.051 48.9895C133.555 49.7006 133.454 50.6903 134.074 51.3241C134.807 52.0732 136.132 52.0214 137.257 51.9058L148.682 50.7305L144.184 53.6927L154.997 52.6858C156.887 52.5098 159.064 52.176 159.985 50.7325C161.066 49.039 159.691 46.9365 158.047 45.6281C154.727 43.0553 150.475 41.7698 146.169 42.0368C141.889 42.2968 137.886 44.1016 135.007 47.069L136.141 47.3054Z" fill="#2F2E41"/>
<path d="M147.57 98.4755H147.443V95.2476C147.443 94.7522 147.233 94.277 146.857 93.9266C146.482 93.5762 145.973 93.3794 145.442 93.3794H138.115C137.584 93.3794 137.075 93.5762 136.7 93.9266C136.324 94.277 136.113 94.7522 136.113 95.2476V112.956C136.113 113.451 136.324 113.927 136.7 114.277C137.075 114.627 137.584 114.824 138.115 114.824H145.442C145.973 114.824 146.482 114.627 146.857 114.277C147.233 113.927 147.443 113.451 147.443 112.956V100.773H147.57L147.57 98.4755Z" fill="#3F3D56"/>
<path d="M141.577 100.784C142.5 100.784 143.248 100.086 143.248 99.2254C143.248 98.3643 142.5 97.6663 141.577 97.6663C140.654 97.6663 139.906 98.3643 139.906 99.2254C139.906 100.086 140.654 100.784 141.577 100.784Z" fill="white"/>
<path d="M143.193 103.567C143.423 103.59 143.651 103.629 143.874 103.686L159.467 90.965L158.502 86.3562L165.764 84.0874L168.322 92.0913C168.529 92.7379 168.505 93.4296 168.255 94.0626C168.004 94.6956 167.541 95.2358 166.934 95.6019L147.143 107.535C147.165 108.366 146.916 109.183 146.429 109.878C145.941 110.574 145.239 111.114 144.415 111.428C143.59 111.741 142.683 111.813 141.814 111.634C140.945 111.454 140.155 111.032 139.549 110.423C138.943 109.814 138.55 109.048 138.422 108.226C138.295 107.403 138.438 106.564 138.834 105.82C139.229 105.076 139.858 104.462 140.637 104.059C141.416 103.657 142.308 103.485 143.193 103.567V103.567Z" fill="#A0616A"/>
<path d="M158.563 90.4343C158.33 90.3067 158.13 90.1337 157.975 89.9272C157.82 89.7206 157.715 89.4854 157.667 89.2374L155.973 80.5772C155.528 79.3564 155.619 78.0205 156.227 76.8625C156.836 75.7046 157.911 74.819 159.218 74.4001C160.525 73.9812 161.956 74.0631 163.198 74.6279C164.441 75.1926 165.392 76.1942 165.844 77.4128L170.171 85.267C170.295 85.4912 170.365 85.7376 170.377 85.9894C170.39 86.2412 170.344 86.4925 170.243 86.7262C170.141 86.9599 169.987 87.1704 169.791 87.3436C169.595 87.5168 169.361 87.6484 169.105 87.7296L160.12 90.5824C159.865 90.6637 159.593 90.6926 159.324 90.667C159.056 90.6414 158.796 90.562 158.563 90.4343Z" fill="#182CE4"/>
<path d="M122.703 107.339H65.2972C63.8923 107.339 62.545 108.023 61.5515 109.241C60.5581 110.458 60 112.109 60 113.831C60 115.553 60.5581 117.204 61.5515 118.421C62.545 119.639 63.8923 120.323 65.2972 120.323H116.793L120.991 128.231C121.081 128.407 121.206 128.552 121.354 128.652C121.503 128.753 121.669 128.806 121.839 128.807C121.941 128.807 122.042 128.79 122.14 128.754C122.354 128.681 122.541 128.523 122.674 128.305C122.807 128.087 122.878 127.821 122.875 127.549V120.319C124.264 120.264 125.58 119.541 126.539 118.308C127.497 117.074 128.022 115.428 127.999 113.725C127.977 112.022 127.409 110.398 126.418 109.203C125.427 108.008 124.093 107.339 122.703 107.339V107.339ZM122.703 119.487H122.19V127.549C122.19 127.639 122.167 127.727 122.123 127.8C122.079 127.873 122.017 127.926 121.946 127.951C121.876 127.977 121.8 127.974 121.731 127.942C121.662 127.911 121.603 127.852 121.564 127.776L117.167 119.487H65.2972C64.0736 119.487 62.9002 118.891 62.035 117.831C61.1697 116.771 60.6837 115.333 60.6837 113.833C60.6837 112.333 61.1697 110.895 62.035 109.835C62.9002 108.775 64.0736 108.179 65.2972 108.179H122.703C123.926 108.179 125.1 108.775 125.965 109.835C126.83 110.895 127.316 112.333 127.316 113.833C127.316 115.333 126.83 116.771 125.965 117.831C125.1 118.891 123.926 119.487 122.703 119.487Z" fill="#3F3D56"/>
<path d="M97.7318 81.2043H5.26824C3.87102 81.2043 2.53102 81.8752 1.54303 83.0692C0.555041 84.2633 0 85.8828 0 87.5714C0 89.2601 0.555041 90.8796 1.54303 92.0737C2.53102 93.2677 3.87102 93.9385 5.26824 93.9385H6.11804V101.438C6.11459 101.705 6.18409 101.965 6.31572 102.179C6.44736 102.393 6.63376 102.548 6.84594 102.62C6.94441 102.655 7.04642 102.672 7.14893 102.672C7.31729 102.672 7.48294 102.621 7.6304 102.523C7.77786 102.425 7.90232 102.283 7.99212 102.111L12.3859 93.9385H97.7318C99.129 93.9385 100.469 93.2677 101.457 92.0737C102.445 90.8796 103 89.2601 103 87.5714C103 85.8828 102.445 84.2633 101.457 83.0692C100.469 81.8752 99.129 81.2043 97.7318 81.2043ZM97.7318 93.1185H12.0171L7.42233 101.661C7.38249 101.736 7.32379 101.793 7.25497 101.823C7.18615 101.854 7.11092 101.857 7.04051 101.832C6.9701 101.807 6.90829 101.755 6.86433 101.684C6.82036 101.613 6.79658 101.527 6.79656 101.438V93.1185H5.26825C4.05097 93.1185 2.88355 92.5341 2.02281 91.4938C1.16206 90.4535 0.678503 89.0426 0.678503 87.5714C0.678503 86.1003 1.16206 84.6893 2.02281 83.6491C2.88355 82.6088 4.05097 82.0244 5.26825 82.0244H97.7318C98.949 82.0244 100.116 82.6088 100.977 83.6491C101.838 84.6893 102.322 86.1003 102.322 87.5714C102.322 89.0426 101.838 90.4535 100.977 91.4938C100.116 92.5341 98.949 93.1185 97.7318 93.1185Z" fill="#CCCCCC"/>
<path d="M61.782 28.0015H5.21796C3.83407 28.0015 2.50686 28.6722 1.52831 29.866C0.549749 31.0598 0 32.679 0 34.3674C0 36.0557 0.549749 37.6749 1.52831 38.8688C2.50686 40.0626 3.83407 40.7333 5.21796 40.7333H6.05964V48.2315C6.05623 48.4979 6.12506 48.7583 6.25544 48.972C6.38582 49.1858 6.57045 49.341 6.7806 49.4135C6.87799 49.4492 6.97902 49.468 7.08071 49.4693C7.2477 49.4687 7.41186 49.4166 7.55789 49.3178C7.70392 49.219 7.82706 49.0767 7.91584 48.9041L12.2676 40.7333H61.782C63.1659 40.7333 64.4931 40.0626 65.4717 38.8688C66.4503 37.6749 67 36.0557 67 34.3674C67 32.679 66.4503 31.0598 65.4717 29.866C64.4931 28.6722 63.1659 28.0015 61.782 28.0015ZM61.782 39.9134H11.9024L7.35148 48.4584C7.31136 48.5321 7.25288 48.5881 7.18466 48.6182C7.11644 48.6483 7.0421 48.6508 6.97263 48.6253C6.90315 48.5999 6.84222 48.5479 6.79884 48.477C6.75545 48.4061 6.73191 48.32 6.73168 48.2315V39.9134H5.21796C4.0123 39.9134 2.85602 39.3291 2.0035 38.289C1.15097 37.2489 0.672021 35.8383 0.672021 34.3674C0.672021 32.8965 1.15097 31.4858 2.0035 30.4457C2.85602 29.4056 4.0123 28.8213 5.21796 28.8213H61.782C62.9877 28.8213 64.144 29.4056 64.9965 30.4457C65.849 31.4858 66.328 32.8965 66.328 34.3674C66.328 35.8383 65.849 37.2489 64.9965 38.289C64.144 39.3291 62.9877 39.9134 61.782 39.9134Z" fill="#CCCCCC"/>
<path d="M122.696 55.0696H42.3018C40.8957 55.0696 39.5472 55.7083 38.5529 56.8453C37.5586 57.9823 37 59.5244 37 61.1323C37 62.7402 37.5586 64.2823 38.5529 65.4193C39.5472 66.5563 40.8957 67.195 42.3018 67.195H115.447L120.983 76.9325C121.073 77.0969 121.198 77.2324 121.346 77.3265C121.495 77.4206 121.662 77.4703 121.831 77.4708C121.934 77.4698 122.035 77.452 122.133 77.4177C122.347 77.3495 122.536 77.202 122.669 76.9983C122.802 76.7946 122.872 76.5462 122.869 76.292V67.195C124.26 67.1434 125.577 66.4687 126.537 65.3164C127.497 64.164 128.022 62.6265 127.999 61.0354C127.977 59.4442 127.408 57.927 126.416 56.811C125.424 55.6949 124.088 55.0695 122.696 55.0696V55.0696ZM122.696 66.4142H122.183V76.292C122.185 76.3765 122.163 76.4596 122.119 76.5278C122.075 76.5959 122.012 76.645 121.941 76.6672C121.87 76.6932 121.794 76.6916 121.725 76.6628C121.655 76.634 121.596 76.5795 121.556 76.508L115.818 66.4142H42.3018C41.0768 66.4142 39.9019 65.8577 39.0357 64.8672C38.1695 63.8766 37.6828 62.5331 37.6828 61.1323C37.6828 59.7315 38.1695 58.388 39.0357 57.3974C39.9019 56.4069 41.0768 55.8504 42.3018 55.8504H122.696C123.921 55.8504 125.096 56.4069 125.963 57.3974C126.829 58.388 127.315 59.7315 127.315 61.1323C127.315 62.5331 126.829 63.8766 125.963 64.8672C125.096 65.8577 123.921 66.4142 122.696 66.4142H122.696Z" fill="#3F3D56"/>
<path d="M67 116.673C68.6569 116.673 70 115.419 70 113.873C70 112.326 68.6569 111.073 67 111.073C65.3431 111.073 64 112.326 64 113.873C64 115.419 65.3431 116.673 67 116.673Z" fill="#182CE4"/>
<path d="M75 116.673C76.6569 116.673 78 115.419 78 113.873C78 112.326 76.6569 111.073 75 111.073C73.3431 111.073 72 112.326 72 113.873C72 115.419 73.3431 116.673 75 116.673Z" fill="#182CE4"/>
<path d="M83 116.673C84.6569 116.673 86 115.419 86 113.873C86 112.326 84.6569 111.073 83 111.073C81.3431 111.073 80 112.326 80 113.873C80 115.419 81.3431 116.673 83 116.673Z" fill="#182CE4"/>
<path d="M88.6092 85.8711H14.3908C14.022 85.8713 13.6683 86.0522 13.4075 86.3741C13.1467 86.696 13.0001 87.1325 13 87.5877V87.888C13.0001 88.3432 13.1467 88.7798 13.4075 89.1016C13.6683 89.4235 14.022 89.6045 14.3908 89.6046H88.6092C88.9779 89.6038 89.3312 89.4226 89.5919 89.1009C89.8526 88.7792 89.9993 88.343 90 87.888V87.5877C89.9993 87.1327 89.8526 86.6966 89.5919 86.3748C89.3312 86.0531 88.9779 85.8719 88.6092 85.8711Z" fill="#CCCCCC"/>
<path d="M59.6078 32.6685H7.3922C7.02317 32.6691 6.66946 32.8049 6.40852 33.0462C6.14758 33.2875 6.00068 33.6146 6 33.9559V34.1811C6.00068 34.5224 6.14758 34.8495 6.40852 35.0908C6.66946 35.3321 7.02317 35.468 7.3922 35.4686H59.6078C59.9768 35.468 60.3305 35.3321 60.5915 35.0908C60.8524 34.8495 60.9993 34.5224 61 34.1811V33.9559C60.9993 33.6146 60.8524 33.2875 60.5915 33.0462C60.3305 32.8049 59.9768 32.6691 59.6078 32.6685Z" fill="#CCCCCC"/>
<path d="M108.611 59.7366H56.3923C56.0232 59.7372 55.6695 59.873 55.4085 60.1144C55.1476 60.3557 55.0007 60.6828 55 61.024V61.2493C55.0007 61.5905 55.1476 61.9176 55.4085 62.1589C55.6695 62.4002 56.0232 62.5361 56.3923 62.5367H108.611C108.98 62.536 109.333 62.4 109.593 62.1586C109.854 61.9173 110 61.5902 110 61.2493V61.024C110 60.6831 109.854 60.356 109.593 60.1147C109.333 59.8733 108.98 59.7373 108.611 59.7366Z" fill="#182CE4"/>
</g>
<defs>
<clipPath id="clip0">
<rect width="183" height="194" fill="white"/>
</clipPath>
</defs>
</svg>
