<svg width="305" height="194" viewBox="0 0 305 194" fill="none" xmlns="http://www.w3.org/2000/svg">
<g clip-path="url(#clip0)">
<path d="M154.484 31.7741L156.761 22.59L151.148 21.2058L148.92 30.1407C147.453 29.774 145.944 29.4487 144.442 29.0888L146.684 20.0915L141.099 18.7073L138.808 27.8776C137.59 27.6008 136.402 27.3216 135.244 27.0402L127.541 25.1161L126.053 31.082C126.053 31.082 130.108 32.0094 130.108 32.0925C132.372 32.66 132.78 34.1688 132.711 35.3384L130.102 45.7961C130.3 45.8437 130.494 45.9062 130.683 45.9829L130.095 45.8376L126.44 60.4824C126.361 60.7375 126.232 60.9743 126.061 61.1793C125.89 61.3843 125.68 61.5534 125.443 61.6769C125.207 61.8005 124.948 61.8759 124.682 61.899C124.416 61.922 124.148 61.8922 123.893 61.8113H123.88C123.935 61.8943 119.817 60.8008 119.817 60.8008L117.049 67.1958L124.316 69.0091C125.7 69.3482 126.994 69.7012 128.295 70.0334L125.984 79.3145L131.562 80.6987L133.853 71.5145C135.334 71.9159 136.822 72.2966 138.303 72.6703L136.019 81.813L141.604 83.1972L143.916 73.93C153.439 75.7294 160.61 75.0027 163.62 66.393C166.049 59.472 163.502 55.4578 158.485 52.8486C162.132 52.0042 164.887 49.6095 165.62 44.6472L165.682 44.6195C166.693 37.8438 161.53 34.2034 154.484 31.7741ZM152.92 62.5172C151.197 69.4382 139.514 65.7009 135.728 64.7666L138.795 52.4679C142.566 53.4161 154.713 55.2848 152.906 62.5172H152.92ZM154.65 44.5226C153.072 50.8346 143.355 47.6232 140.199 46.8411L142.968 35.6914C146.117 36.4735 156.277 37.9407 154.609 44.5226H154.65Z" fill="#182CE4"/>
<path d="M143.603 104.206C133.397 104.206 123.42 101.18 114.934 95.5094C106.448 89.8392 99.8338 81.7799 95.9281 72.3507C92.0224 62.9214 91.0004 52.5458 92.9916 42.5358C94.9827 32.5258 99.8974 23.331 107.114 16.1142C114.331 8.89738 123.526 3.98267 133.536 1.99156C143.546 0.0004462 153.921 1.02236 163.351 4.92807C172.78 8.83378 180.839 15.4479 186.509 23.9339C192.18 32.42 195.206 42.3969 195.206 52.6031C195.191 66.2843 189.749 79.4007 180.075 89.0748C170.401 98.7489 157.284 104.191 143.603 104.206ZM143.603 2.38422C133.671 2.38422 123.961 5.32951 115.703 10.8476C107.445 16.3657 101.008 24.2088 97.2069 33.3851C93.406 42.5614 92.4115 52.6588 94.3492 62.4003C96.2869 72.1418 101.07 81.0899 108.093 88.1131C115.116 95.1364 124.064 99.9192 133.806 101.857C143.547 103.795 153.645 102.8 162.821 98.9992C171.997 95.1983 179.84 88.7616 185.358 80.5031C190.877 72.2447 193.822 62.5354 193.822 52.6031C193.807 39.2888 188.511 26.5242 179.097 17.1096C169.682 7.695 156.917 2.39927 143.603 2.38422ZM141.872 84.7654L134.943 83.048L137.227 73.904C136.192 73.6431 135.15 73.3728 134.117 73.0964L131.829 82.267L124.908 80.5496L127.221 71.2624C126.951 71.1921 126.68 71.1213 126.408 71.0501C125.596 70.8376 124.773 70.622 123.914 70.4114L115.853 68.3997L119.182 60.7092L119.758 60.8623C120.555 61.0738 121.397 61.2935 122.098 61.4723L122.001 61.3262L123.842 61.8785C124.011 61.9341 124.189 61.9557 124.367 61.9418C124.544 61.928 124.717 61.8791 124.875 61.7978C125.033 61.7166 125.174 61.6048 125.289 61.4688C125.404 61.3328 125.49 61.1753 125.543 61.0056L129.029 47.0301L129.026 47.029L131.786 35.9663C131.841 34.6679 131.159 33.8589 129.703 33.4942L128.15 33.1046L128.188 33.0799C127.454 32.9018 126.531 32.6855 125.662 32.4872L124.974 32.33L126.8 25.0072L135.175 27.0991C136.115 27.3295 137.078 27.5572 138.064 27.782L140.358 18.5995L147.287 20.3166L145.046 29.3068C145.44 29.3987 145.834 29.4896 146.228 29.5795C146.882 29.7299 147.534 29.8793 148.178 30.0347L150.407 21.0989L157.363 22.8143L155.071 32.06C160.565 34.0299 167.306 37.5708 166.13 45.4519L166.074 45.828L166.008 45.8574C165.321 49.8478 163.296 52.5044 159.976 53.7764C164.823 56.8746 166.15 61.331 164.036 67.3524C160.698 76.8989 152.214 76.8972 144.193 75.4589L141.872 84.7654ZM136.622 82.0383L140.863 83.0893L143.166 73.8591L143.808 73.9804C154.764 76.0503 160.246 73.9973 162.73 66.8949C164.797 61.0066 163.271 56.9709 157.928 54.1927L156.264 53.3273L158.092 52.9045C161.909 52.0208 164.071 49.5258 164.699 45.2762L164.755 44.8997L164.811 44.8747C165.431 39.5623 162.084 35.9386 154.022 33.1587L153.424 32.9526L155.686 23.8262L151.416 22.7735L149.187 31.7107L148.515 31.5427C147.66 31.3288 146.792 31.1294 145.918 30.929C145.294 30.7857 144.669 30.6421 144.044 30.4924L143.365 30.3295L145.609 21.3271L141.366 20.2758L139.079 29.4332L138.418 29.2829C137.196 29.0047 136.002 28.7273 134.842 28.4427L127.808 26.6855L126.658 31.295C127.807 31.5222 128.944 31.8099 130.062 32.157C132.152 32.6893 133.282 34.1286 133.165 36.1096L133.146 36.2363L130.693 46.0663L130.701 46.0697L130.536 46.6939L130.504 46.6857L130.491 46.7256L130.53 46.7354L126.875 61.3804C126.772 61.727 126.602 62.0496 126.373 62.3295C126.144 62.6095 125.862 62.8411 125.543 63.0109C125.223 63.1807 124.874 63.2853 124.514 63.3186C124.154 63.3519 123.791 63.3133 123.446 63.2049L123.448 63.1985C122.918 63.1272 121.937 62.8724 119.979 62.353L117.771 67.4521L124.247 69.0678C125.109 69.2794 125.94 69.4967 126.759 69.7113C127.252 69.84 127.74 69.9681 128.23 70.0931L128.896 70.2631L126.586 79.5399L130.821 80.5909L133.115 71.3922L133.797 71.5767C135.267 71.9751 136.759 72.3627 138.233 72.7287L138.906 72.896L136.622 82.0383ZM145.796 68.0351C142.447 68.0351 138.775 67.0699 136.411 66.4491C136.002 66.3416 135.637 66.2457 135.326 66.1686L134.652 66.0023L138.054 52.3577L138.726 52.527C139.106 52.6226 139.573 52.7274 140.102 52.8467C143.953 53.7142 150.398 55.166 152.711 58.9188C153.387 60.003 153.666 61.2883 153.5 62.5554H153.555L153.355 63.4147C153.192 64.1433 152.88 64.8304 152.439 65.4334C151.999 66.0364 151.439 66.5424 150.795 66.9198C149.414 67.7377 147.655 68.0351 145.796 68.0351ZM136.33 64.9967C136.468 65.0328 136.613 65.0707 136.763 65.1102C139.994 65.9601 146.718 67.7255 150.089 65.729C150.961 65.226 151.609 64.4121 151.906 63.4506L151.998 63.0799C152.165 62.5065 152.21 61.9046 152.13 61.3129C152.049 60.7212 151.846 60.1529 151.532 59.6447C149.526 56.3883 143.197 54.9629 139.797 54.1971C139.537 54.1383 139.291 54.0829 139.063 54.0305L136.33 64.9967ZM148.313 49.7732C145.562 49.7732 142.623 48.9908 140.722 48.4849C140.373 48.392 140.061 48.3089 139.796 48.2433L139.124 48.0767L142.226 35.5834L142.898 35.75C143.209 35.8274 143.59 35.9116 144.022 36.0069C147.182 36.7044 152.47 37.8723 154.474 41.1216C155.109 42.1484 155.368 43.3643 155.205 44.5608H155.259L155.085 45.4208C154.932 46.12 154.636 46.78 154.216 47.3599C153.796 47.9397 153.262 48.4269 152.646 48.7911C151.314 49.4954 149.819 49.8343 148.313 49.7732ZM140.8 47.0733C140.889 47.097 140.982 47.1217 141.078 47.1474C143.879 47.8922 149.091 49.2797 151.942 47.5988C152.675 47.1741 153.24 46.5099 153.54 45.7179L153.701 45.0829C153.864 44.5455 153.913 43.9798 153.843 43.4225C153.773 42.8653 153.587 42.3289 153.296 41.8485C151.599 39.0973 146.476 37.9662 143.724 37.3586C143.554 37.3211 143.392 37.2853 143.238 37.2508L140.8 47.0733Z" fill="#182CE4"/>
<path d="M169.119 92.1466C169.488 91.6281 169.973 91.203 170.535 90.9052C171.097 90.6074 171.721 90.445 172.357 90.4312C172.992 90.4173 173.623 90.5522 174.197 90.8253C174.772 91.0983 175.275 91.5018 175.666 92.0037L189.387 87.3398L187.485 94.6266L174.746 97.9384C173.949 98.4787 172.986 98.721 172.028 98.6228C171.07 98.5245 170.176 98.092 169.505 97.401C168.834 96.71 168.427 95.8048 168.357 94.844C168.286 93.8832 168.556 92.9282 169.119 92.1466Z" fill="#FFB8B8"/>
<path d="M149.499 194.138C150.51 183.248 153.303 172.598 157.766 162.612C159.01 159.834 160.379 157.116 161.873 154.46C162.257 153.776 161.207 153.162 160.823 153.846C155.389 163.521 151.582 174.024 149.554 184.934C148.99 187.98 148.566 191.048 148.282 194.138C148.21 194.917 149.427 194.912 149.499 194.138Z" fill="#E6E6E6"/>
<path d="M164.819 156.411C169.074 156.411 172.524 152.961 172.524 148.705C172.524 144.45 169.074 141 164.819 141C160.563 141 157.113 144.45 157.113 148.705C157.113 152.961 160.563 156.411 164.819 156.411Z" fill="#182CE4"/>
<path d="M150.286 194.343C150.942 187.278 152.754 180.368 155.65 173.891C156.457 172.088 157.345 170.325 158.314 168.601C158.363 168.511 158.374 168.406 158.347 168.307C158.319 168.209 158.254 168.125 158.166 168.073C158.077 168.021 157.972 168.006 157.873 168.03C157.773 168.055 157.687 168.117 157.633 168.203C154.107 174.48 151.638 181.293 150.322 188.371C149.956 190.348 149.681 192.338 149.497 194.343C149.45 194.848 150.24 194.845 150.286 194.343H150.286Z" fill="#E6E6E6"/>
<path d="M160.225 169.868C162.986 169.868 165.224 167.63 165.224 164.869C165.224 162.108 162.986 159.87 160.225 159.87C157.465 159.87 155.227 162.108 155.227 164.869C155.227 167.63 157.465 169.868 160.225 169.868Z" fill="#182CE4"/>
<path d="M149.29 193.871C145.462 187.897 142.641 181.335 140.939 174.446C140.467 172.528 140.083 170.592 139.787 168.637C139.77 168.536 139.715 168.446 139.632 168.385C139.55 168.324 139.447 168.298 139.345 168.312C139.244 168.325 139.152 168.378 139.088 168.458C139.025 168.538 138.995 168.64 139.005 168.742C140.086 175.86 142.329 182.751 145.645 189.141C146.572 190.924 147.58 192.663 148.668 194.356C148.942 194.784 149.562 194.296 149.29 193.871V193.871Z" fill="#E6E6E6"/>
<path d="M138.999 169.517C141.76 169.517 143.998 167.279 143.998 164.518C143.998 161.757 141.76 159.519 138.999 159.519C136.238 159.519 134 161.757 134 164.518C134 167.279 136.238 169.517 138.999 169.517Z" fill="#182CE4"/>
<path d="M224.657 121.068C224.985 120.57 225.2 120.006 225.287 119.416C225.374 118.827 225.33 118.225 225.16 117.654C224.989 117.082 224.695 116.556 224.298 116.11C223.902 115.665 223.413 115.312 222.865 115.076L223.916 100.622L217.345 104.301L217.354 117.463C217.019 118.409 217.043 119.446 217.421 120.376C217.799 121.306 218.505 122.065 219.405 122.509C220.305 122.953 221.337 123.052 222.305 122.786C223.272 122.52 224.109 121.909 224.657 121.068V121.068Z" fill="#FFB8B8"/>
<path d="M223.022 64.8799L224.819 110.877L217.519 110.471L215.896 62.2106L217.436 61.4861C218.022 61.2105 218.667 61.0842 219.313 61.1186C219.959 61.1529 220.587 61.3468 221.14 61.6829C221.694 62.019 222.155 62.4868 222.483 63.0447C222.812 63.6026 222.997 64.2331 223.022 64.8799Z" fill="#182CE4"/>
<path d="M200.447 189.083L195.475 189.082L193.109 169.905L200.447 169.905L200.447 189.083Z" fill="#FFB8B8"/>
<path d="M191.037 187H200.626V193.037H185C185 192.245 185.156 191.459 185.46 190.727C185.763 189.994 186.208 189.329 186.768 188.768C187.329 188.208 187.995 187.763 188.727 187.46C189.459 187.156 190.245 187 191.037 187Z" fill="#2F2E41"/>
<path d="M241.814 183.141L237.301 185.23L227.098 168.82L233.757 165.738L241.814 183.141Z" fill="#FFB8B8"/>
<path d="M233.482 185.432L242.183 181.404L244.72 186.883L230.539 193.447C229.867 191.994 229.799 190.333 230.351 188.83C230.902 187.327 232.029 186.105 233.482 185.432Z" fill="#2F2E41"/>
<path d="M188.641 126.495L193.768 185.012L200.663 184.201L205.758 130.749L233.918 181.767L241.218 179.74C241.218 179.74 217.722 109.457 215.897 103.577C213.896 97.1304 198.053 94.6547 198.053 94.6547L197.444 94.0464C190.636 103.211 187.909 115.102 188.641 126.495Z" fill="#2F2E41"/>
<path d="M215.957 56.4094C221.458 56.4094 225.918 51.9498 225.918 46.4486C225.918 40.9474 221.458 36.4878 215.957 36.4878C210.456 36.4878 205.996 40.9474 205.996 46.4486C205.996 51.9498 210.456 56.4094 215.957 56.4094Z" fill="#FFB8B8"/>
<path d="M222.211 65.6681L215.289 101.75C215.289 101.75 204.768 99.6494 201.021 97.1187C199.537 96.1129 198.19 95.0747 197.055 94.1338C196.832 93.9513 196.621 93.7688 196.414 93.5945C194.54 91.9925 193.389 90.8002 193.389 90.8002C193.389 90.8002 193.989 87.8599 194.723 84.3803C195.542 80.4829 196.536 75.9043 197.043 74.0347C198.158 69.9345 201.986 65.1571 204.971 61.9046C206.052 60.7251 207.433 59.8619 208.967 59.4075C210.501 58.9531 212.13 58.9247 213.678 59.3253L219.08 60.7204C220.134 60.9921 221.044 61.655 221.625 62.5743C222.207 63.4935 222.417 64.5999 222.211 65.6681Z" fill="#182CE4"/>
<path opacity="0.2" d="M205.47 81.4275C205.47 81.4275 201.747 89.1655 196.414 93.5941C194.54 91.9922 193.389 90.7998 193.389 90.7998C193.389 90.7998 193.989 87.8596 194.723 84.3799C199.192 82.0196 203.799 80.5313 205.47 81.4275Z" fill="black"/>
<path d="M212.072 67.2639C211.704 67.0764 211.32 66.9238 210.924 66.8079C210.115 66.5862 209.264 66.5688 208.447 66.7571C207.63 66.9454 206.872 67.3335 206.242 67.8867L184.359 83.9153L166.955 89.7695L170.1 97.2076L196.045 90.8713L213.253 75.5789C213.845 75.0109 214.293 74.3103 214.561 73.5348C214.829 72.7592 214.909 71.9311 214.793 71.1188C214.678 70.3064 214.371 69.5332 213.898 68.8629C213.425 68.1926 212.799 67.6445 212.072 67.2639Z" fill="#182CE4"/>
<path d="M216.547 56.3178C217.964 54.1959 219.083 51.2535 217.522 49.2345C215.982 47.2415 212.943 47.5352 210.583 46.6533C207.297 45.425 205.39 41.5639 205.985 38.106C206.579 34.6481 209.355 31.7817 212.662 30.6088C215.969 29.4359 219.698 29.8174 222.936 31.168C226.922 32.8306 230.342 36.0469 231.776 40.1211C233.21 44.1952 232.443 49.0871 229.468 52.2185C226.279 55.5759 221.274 56.4706 216.644 56.4163" fill="#2F2E41"/>
<path d="M232.188 44.5728C232.593 46.8403 235.081 48.1281 237.367 48.4112C239.653 48.6942 242.018 48.3313 244.243 48.9258C248.166 49.9739 250.754 53.7471 252.178 57.5501C253.603 61.3531 254.234 65.4576 256.085 69.0725C257.935 72.6873 261.524 75.8741 265.57 75.536C264.778 77.532 263.388 79.2347 261.592 80.4119C259.796 81.5892 257.68 82.1835 255.534 82.1139C253.387 82.0443 251.314 81.3141 249.598 80.023C247.882 78.7319 246.606 76.9427 245.944 74.8996C244.457 70.31 246.164 64.8366 243.564 60.7728C242.125 58.5239 239.641 57.2012 237.246 56.0225C234.85 54.8439 232.336 53.6341 230.73 51.5016C229.124 49.3691 228.803 46.0012 230.783 44.2095" fill="#2F2E41"/>
<path d="M104.547 188.636L109.301 187.178L105.936 168.149L98.9209 170.302L104.547 188.636Z" fill="#A0616A"/>
<path d="M119.821 188.778L104.883 193.362L103.111 187.591L112.278 184.777C113.809 184.308 115.464 184.465 116.878 185.215C118.293 185.966 119.352 187.247 119.821 188.778Z" fill="#2F2E41"/>
<path d="M62.37 188.745H67.342L69.7072 169.568L62.3691 169.568L62.37 188.745Z" fill="#A0616A"/>
<path d="M76.9316 193.362L61.3054 193.362L61.3051 187.325L70.894 187.324C72.4952 187.324 74.0308 187.96 75.1631 189.093C76.2954 190.225 76.9316 191.76 76.9316 193.362Z" fill="#2F2E41"/>
<path d="M63.6354 125.042C63.227 124.684 62.902 124.241 62.6833 123.744C62.4647 123.246 62.3578 122.707 62.3701 122.164C62.3824 121.621 62.5136 121.087 62.7545 120.6C62.9954 120.114 63.3401 119.685 63.7644 119.346L67.6193 70.8037L75.459 72.7624L69.182 120.114C69.7047 120.865 69.9339 121.781 69.8262 122.689C69.7185 123.597 69.2814 124.434 68.5977 125.042C67.914 125.649 67.0313 125.985 66.1167 125.985C65.2021 125.985 64.3193 125.65 63.6354 125.042Z" fill="#A0616A"/>
<path d="M82.1737 52.3823C87.6749 52.3823 92.1345 47.9227 92.1345 42.4215C92.1345 36.9203 87.6749 32.4607 82.1737 32.4607C76.6725 32.4607 72.2129 36.9203 72.2129 42.4215C72.2129 47.9227 76.6725 52.3823 82.1737 52.3823Z" fill="#A0616A"/>
<path d="M68.5693 71.7668C66.2021 68.5171 66.1292 64.0413 68.6791 60.933C70.3431 58.9045 73.1265 57.2812 77.7737 57.2812C90.1604 57.2812 94.8589 67.1052 94.8589 67.1052C94.8589 67.1052 99.9844 76.5021 96.9945 85.0446C94.0046 93.5872 94.0046 94.4415 94.0046 94.4415L74.3567 92.733C74.3567 92.733 77.6713 84.2623 68.5693 71.7668Z" fill="#CCCCCC"/>
<path d="M62.5098 80.2704L66.7425 66.4225C67.026 65.4952 67.5096 64.6416 68.1593 63.9218C68.809 63.202 69.6089 62.6337 70.5023 62.2571C71.3958 61.8804 72.3611 61.7046 73.33 61.742C74.2989 61.7794 75.2477 62.0292 76.1095 62.4736C77.6046 63.248 78.7493 64.5619 79.3115 66.149C79.8736 67.7361 79.8112 69.4776 79.1369 71.0204L73.7558 83.2753L62.5098 80.2704Z" fill="#CCCCCC"/>
<path d="M93.5775 92.3059L110.236 178.586L101.266 181.149L79.4822 124.341L69.6582 182.43L60.2614 183.712C60.2614 183.712 56.1395 106.852 74.3567 92.733L93.5775 92.3059Z" fill="#2F2E41"/>
<path d="M115.967 83.3503C115.822 83.5222 115.692 83.7051 115.576 83.8975L95.4873 84.8715L91.619 73.062L84.9023 76.2543L91.224 93.8437L116.069 88.9848C116.653 89.6222 117.417 90.0668 118.259 90.2593C119.102 90.4519 119.983 90.3834 120.786 90.0629C121.589 89.7424 122.275 89.1852 122.753 88.4652C123.232 87.7453 123.479 86.8968 123.464 86.0326C123.448 85.1684 123.17 84.3294 122.666 83.6273C122.161 82.9251 121.456 82.3931 120.642 82.1019C119.828 81.8108 118.945 81.7742 118.11 81.9972C117.275 82.2202 116.527 82.6922 115.967 83.3503V83.3503Z" fill="#A0616A"/>
<path d="M81.8755 68.3456C81.7621 67.3826 81.8617 66.4065 82.1671 65.4862C82.4726 64.5659 82.9764 63.724 83.6431 63.0198C84.3097 62.3157 85.1229 61.7666 86.0251 61.4113C86.9273 61.0561 87.8965 60.9033 88.8643 60.9638C90.5445 61.0717 92.1209 61.8145 93.2738 63.0417C94.4266 64.2688 95.0697 65.8885 95.0725 67.5722V80.9563L83.5673 82.7266L81.8755 68.3456Z" fill="#CCCCCC"/>
<path d="M84.3647 52.4723C82.8696 52.4658 81.7163 50.8918 81.7833 49.3983C81.8504 47.9047 82.8535 46.5907 84.062 45.7106C85.2705 44.8305 86.6879 44.2945 88.0356 43.6474C89.3833 43.0004 90.7193 42.1933 91.5514 40.9512C92.0541 40.1383 92.3542 39.2165 92.4264 38.2634C92.4986 37.3104 92.3409 36.3539 91.9665 35.4745C91.1921 33.7156 89.8625 32.2591 88.1813 31.328C85.6799 29.8779 82.7281 29.4112 79.9013 30.0189C77.1076 30.6318 72.9443 32.3286 71.3075 34.674L69.6009 39.3208C67.8619 41.4118 69.2083 44.5172 70.2773 47.018C71.3463 49.5188 73.6223 51.4003 76.1907 52.2948C78.7965 53.1322 81.586 53.2159 84.2373 52.5361" fill="#2F2E41"/>
<path d="M75.2616 36.9963C74.528 35.8205 73.2564 35.0727 71.9418 34.6338C70.4189 34.1254 68.7991 33.9753 67.2087 34.1953C65.6183 34.4153 64.1001 34.9994 62.7724 35.9021C61.4446 36.8049 60.3432 38.0019 59.5537 39.4C58.7643 40.7981 58.3082 42.3595 58.221 43.9627C58.0817 46.5235 58.8835 49.0277 59.3547 51.5486C59.8259 54.0695 59.9196 56.8539 58.5296 59.0091C57.4709 60.6507 55.7054 61.6843 53.9628 62.5669C52.5104 63.3024 50.9393 63.9927 49.3179 63.8461C47.6965 63.6996 46.0668 62.4153 46.1099 60.7878C45.567 61.9548 45.2005 63.1958 45.0223 64.4704C44.9082 65.7503 45.2237 67.1313 46.1481 68.0238C47.4918 69.321 49.6207 69.2261 51.4672 68.9462C55.4647 68.3402 59.5127 67.2042 62.6708 64.6797C65.829 62.1551 67.9246 57.9982 67.0929 54.0415C66.7455 52.3887 65.929 50.8798 65.2692 49.3251C64.6095 47.7703 64.0944 46.0697 64.3975 44.4081C64.5769 43.5521 64.942 42.7459 65.467 42.0465C65.9921 41.347 66.6642 40.7713 67.4361 40.36C68.9971 39.5484 70.7832 39.2775 72.5147 39.5899C73.6499 39.7762 75.0673 40.0654 75.7405 39.1327C75.919 38.8372 76.0101 38.4972 76.0034 38.1521C75.9966 37.807 75.8923 37.4708 75.7025 37.1825C75.3141 36.6122 74.8194 36.1221 74.2456 35.7389" fill="#2F2E41"/>
</g>
<defs>
<clipPath id="clip0">
<rect width="305" height="194" fill="white"/>
</clipPath>
</defs>
</svg>
