<svg width="16" height="16" viewBox="0 0 16 16" fill="none" xmlns="http://www.w3.org/2000/svg">
<g clip-path="url(#clip0)">
<path d="M15.8594 9.5C15.6198 8.27083 15.1302 7.16406 14.3907 6.17969C13.6511 5.19531 12.7214 4.41927 11.6016 3.85156C10.4818 3.28385 9.28129 3 8.00004 3C7.58337 3 7.22921 2.85417 6.93754 2.5625C6.64587 2.27083 6.50004 1.91667 6.50004 1.5C6.50004 1.08333 6.64587 0.729167 6.93754 0.4375C7.22921 0.145833 7.58337 0 8.00004 0C9.08337 0 10.1198 0.210938 11.1094 0.632812C12.099 1.05469 12.9506 1.6224 13.6641 2.33594C14.3776 3.04948 14.9454 3.90104 15.3672 4.89062C15.7891 5.88021 16 6.91667 16 8C16 8.48958 15.9532 8.98958 15.8594 9.5ZM12.3282 10.5C12.5365 10.1458 12.8412 9.91406 13.2422 9.80469C13.6433 9.69531 14.0235 9.74479 14.3829 9.95312C14.7422 10.1615 14.974 10.4661 15.0782 10.8672C15.1823 11.2682 15.1302 11.6458 14.9219 12C14.3802 12.9375 13.6797 13.7292 12.8204 14.375C11.961 15.0208 11.0443 15.474 10.0704 15.7344C9.0964 15.9948 8.07556 16.0599 7.00785 15.9297C5.94014 15.7995 4.93754 15.4635 4.00004 14.9219C3.57296 14.6823 3.16671 14.3906 2.78129 14.0469C3.65629 14.3698 4.55994 14.5182 5.49223 14.4922C6.42452 14.4661 7.31254 14.3047 8.15629 14.0078C9.00004 13.7109 9.7865 13.2604 10.5157 12.6562C11.2448 12.0521 11.849 11.3333 12.3282 10.5ZM3.67192 10.5C3.88025 10.8542 3.92973 11.2318 3.82035 11.6328C3.71098 12.0339 3.4766 12.3385 3.11723 12.5469C2.75785 12.7552 2.38025 12.8047 1.98442 12.6953C1.58858 12.5859 1.2865 12.3542 1.07817 12C0.536499 11.0625 0.200562 10.0599 0.0703532 8.99219C-0.0598551 7.92448 0.00524902 6.90365 0.265666 5.92969C0.526082 4.95573 0.979207 4.03906 1.62504 3.17969C2.27087 2.32031 3.06254 1.61979 4.00004 1.07812C4.42712 0.828125 4.88546 0.619792 5.37504 0.453125C4.42712 1.26562 3.71098 2.23958 3.2266 3.375C2.74223 4.51042 2.5365 5.70573 2.60942 6.96094C2.68233 8.21615 3.0365 9.39583 3.67192 10.5Z" fill="#00A011"/>
</g>
<defs>
<clipPath id="clip0">
<rect width="16" height="16" fill="white"/>
</clipPath>
</defs>
</svg>
