<svg width="31" height="46" viewBox="0 0 31 46" fill="none" xmlns="http://www.w3.org/2000/svg">
<path d="M3.588 41.06C3.436 41.06 3.312 41.016 3.216 40.928C3.128 40.832 3.084 40.708 3.084 40.556V33.38H0.504C0.36 33.38 0.248 33.344 0.168 33.272C0.088 33.2 0.048 33.096 0.048 32.96C0.048 32.824 0.088 32.72 0.168 32.648C0.248 32.576 0.36 32.54 0.504 32.54H6.66C6.804 32.54 6.916 32.576 6.996 32.648C7.076 32.72 7.116 32.824 7.116 32.96C7.116 33.096 7.076 33.2 6.996 33.272C6.916 33.344 6.804 33.38 6.66 33.38H4.08V40.556C4.08 40.708 4.036 40.832 3.948 40.928C3.86 41.016 3.74 41.06 3.588 41.06ZM10.0498 35.036C10.3858 35.012 10.5538 35.148 10.5538 35.444C10.5538 35.572 10.5178 35.676 10.4458 35.756C10.3738 35.828 10.2498 35.872 10.0738 35.888L9.71381 35.924C9.17781 35.972 8.77781 36.164 8.51381 36.5C8.25781 36.828 8.12981 37.216 8.12981 37.664V40.58C8.12981 40.74 8.08581 40.86 7.99781 40.94C7.90981 41.02 7.79381 41.06 7.64981 41.06C7.50581 41.06 7.38581 41.02 7.28981 40.94C7.20181 40.852 7.15781 40.732 7.15781 40.58V35.516C7.15781 35.364 7.20581 35.248 7.30181 35.168C7.39781 35.08 7.51381 35.036 7.64981 35.036C7.77781 35.036 7.88581 35.08 7.97381 35.168C8.06181 35.248 8.10581 35.36 8.10581 35.504V36.176C8.27381 35.824 8.50981 35.556 8.81381 35.372C9.12581 35.188 9.48181 35.08 9.88181 35.048L10.0498 35.036ZM13.7294 35.012C15.1934 35.012 15.9254 35.78 15.9254 37.316V40.58C15.9254 40.724 15.8814 40.84 15.7934 40.928C15.7134 41.016 15.6014 41.06 15.4574 41.06C15.3134 41.06 15.1974 41.016 15.1094 40.928C15.0214 40.84 14.9774 40.724 14.9774 40.58V40.004C14.8254 40.348 14.5934 40.616 14.2814 40.808C13.9694 40.992 13.6094 41.084 13.2014 41.084C12.8254 41.084 12.4774 41.008 12.1574 40.856C11.8454 40.704 11.5974 40.492 11.4134 40.22C11.2294 39.948 11.1374 39.648 11.1374 39.32C11.1374 38.88 11.2494 38.54 11.4734 38.3C11.6974 38.052 12.0654 37.876 12.5774 37.772C13.0894 37.66 13.8014 37.604 14.7134 37.604H14.9774V37.208C14.9774 36.728 14.8774 36.376 14.6774 36.152C14.4854 35.928 14.1694 35.816 13.7294 35.816C13.1854 35.816 12.6334 35.964 12.0734 36.26C11.8574 36.396 11.7054 36.464 11.6174 36.464C11.5214 36.464 11.4414 36.428 11.3774 36.356C11.3134 36.284 11.2814 36.192 11.2814 36.08C11.2814 35.968 11.3134 35.872 11.3774 35.792C11.4494 35.704 11.5614 35.616 11.7134 35.528C11.9934 35.368 12.3094 35.244 12.6614 35.156C13.0214 35.06 13.3774 35.012 13.7294 35.012ZM13.3334 40.316C13.8134 40.316 14.2054 40.156 14.5094 39.836C14.8214 39.508 14.9774 39.088 14.9774 38.576V38.228H14.7614C14.0574 38.228 13.5214 38.26 13.1534 38.324C12.7854 38.38 12.5214 38.48 12.3614 38.624C12.2094 38.76 12.1334 38.964 12.1334 39.236C12.1334 39.548 12.2454 39.808 12.4694 40.016C12.7014 40.216 12.9894 40.316 13.3334 40.316ZM22.3967 32.48C22.5487 32.48 22.6687 32.524 22.7567 32.612C22.8447 32.7 22.8887 32.812 22.8887 32.948V40.58C22.8887 40.724 22.8447 40.84 22.7567 40.928C22.6687 41.016 22.5487 41.06 22.3967 41.06C22.2447 41.06 22.1247 41.016 22.0367 40.928C21.9567 40.84 21.9167 40.724 21.9167 40.58V39.932C21.7407 40.3 21.4807 40.584 21.1367 40.784C20.8007 40.984 20.4047 41.084 19.9487 41.084C19.4367 41.084 18.9847 40.956 18.5927 40.7C18.2007 40.444 17.8967 40.088 17.6807 39.632C17.4647 39.168 17.3567 38.632 17.3567 38.024C17.3567 37.424 17.4647 36.896 17.6807 36.44C17.8967 35.984 18.2007 35.632 18.5927 35.384C18.9847 35.136 19.4367 35.012 19.9487 35.012C20.4047 35.012 20.8007 35.112 21.1367 35.312C21.4807 35.512 21.7407 35.796 21.9167 36.164V32.948C21.9167 32.804 21.9567 32.692 22.0367 32.612C22.1247 32.524 22.2447 32.48 22.3967 32.48ZM20.1407 40.28C20.7087 40.28 21.1447 40.088 21.4487 39.704C21.7607 39.312 21.9167 38.76 21.9167 38.048C21.9167 37.336 21.7607 36.788 21.4487 36.404C21.1447 36.02 20.7087 35.828 20.1407 35.828C19.5727 35.828 19.1287 36.02 18.8087 36.404C18.4967 36.788 18.3407 37.328 18.3407 38.024C18.3407 38.736 18.4967 39.292 18.8087 39.692C19.1287 40.084 19.5727 40.28 20.1407 40.28ZM29.2131 39.644C29.3011 39.644 29.3771 39.68 29.4411 39.752C29.5051 39.824 29.5371 39.916 29.5371 40.028C29.5371 40.228 29.3971 40.412 29.1171 40.58C28.8291 40.748 28.5251 40.876 28.2051 40.964C27.8851 41.044 27.5731 41.084 27.2691 41.084C26.3651 41.084 25.6491 40.816 25.1211 40.28C24.6011 39.744 24.3411 39.004 24.3411 38.06C24.3411 37.46 24.4571 36.932 24.6891 36.476C24.9211 36.012 25.2451 35.652 25.6611 35.396C26.0851 35.14 26.5651 35.012 27.1011 35.012C27.8611 35.012 28.4651 35.26 28.9131 35.756C29.3611 36.252 29.5851 36.924 29.5851 37.772C29.5851 37.932 29.5531 38.048 29.4891 38.12C29.4251 38.192 29.3211 38.228 29.1771 38.228H25.3131C25.3851 39.604 26.0371 40.292 27.2691 40.292C27.5811 40.292 27.8491 40.252 28.0731 40.172C28.2971 40.084 28.5371 39.968 28.7931 39.824C29.0011 39.704 29.1411 39.644 29.2131 39.644ZM27.1131 35.768C26.6011 35.768 26.1891 35.928 25.8771 36.248C25.5731 36.568 25.3931 37.02 25.3371 37.604H28.7331C28.7171 37.012 28.5691 36.56 28.2891 36.248C28.0091 35.928 27.6171 35.768 27.1131 35.768Z" fill="#888888"/>
<path fill-rule="evenodd" clip-rule="evenodd" d="M9.99771 7.08946C8.49209 7.08946 7.21053 9.01144 6.73081 11.6974C6.57694 12.2843 6.5 13.0202 6.5 13.8166C6.5 15.1911 6.70531 16.6443 7.13599 17.9532C7.52133 19.1243 8.27719 20.6672 9.60125 20.9418C12.5523 21.6332 13.4771 15.9751 13.4771 14.0393C13.4771 12.9427 13.3503 11.9058 13.1247 10.9836C14.9075 11.8209 15.9694 12.2995 17.6642 10.7059C17.3896 11.6774 17.2603 12.7586 17.2603 13.7849C17.2603 17.2393 18.6581 20.0398 20.3823 20.0398C22.9336 20.0398 23.5679 15.1506 23.4944 13.2858C23.4284 11.6118 22.5167 6.9352 19.9738 7.58305C18.0846 8.06387 16.4456 11.543 11.7581 8.028C11.2097 7.49063 10.6803 7.08946 9.99793 7.08946H9.99771ZM22.5599 11.0681C22.3299 10.1788 21.8859 9.05501 21.1754 8.47494C20.3324 7.7866 19.653 8.34356 18.868 8.8838C17.7906 9.62605 16.8222 10.2411 15.4611 10.2224C15.9816 10.3553 16.5764 10.413 17.2673 10.3604C18.0177 10.3034 18.6097 10.1157 19.1145 9.95548C20.422 9.54067 21.2312 9.28475 22.5599 11.0679V11.0681ZM18.5286 4.96878C18.5286 6.08403 19.424 6.98802 20.5285 6.98802C21.6331 6.98802 22.5285 6.08403 22.5285 4.96878C22.5285 3.85353 21.6331 2.94932 20.5285 2.94932C19.424 2.94932 18.5286 3.85331 18.5286 4.96878ZM20.5285 6.36504C19.7646 6.36504 19.1454 5.74008 19.1454 4.96878C19.1454 4.19748 19.7644 3.5723 20.5285 3.5723C21.2925 3.5723 21.9117 4.19748 21.9117 4.96878C21.9117 5.74008 21.2925 6.36504 20.5285 6.36504ZM7.94873 4.24369C7.94873 5.48283 8.94369 6.48739 10.171 6.48739C11.3983 6.48739 12.3932 5.48283 12.3932 4.24369C12.3932 3.00456 11.3983 2 10.171 2C8.94369 2 7.94873 3.00456 7.94873 4.24369ZM7.34958 12.4117C8.27479 10.8214 10.5214 10.1656 12.3115 10.7527C12.5471 11.8728 12.7191 12.8941 12.7191 14.0393C12.7191 14.9281 12.6325 15.7698 12.4761 16.5321C12.3141 17.3199 12.0781 18.0245 11.786 18.6099C11.3684 19.4465 10.5544 20.5895 9.48312 20.1109C8.77456 19.7944 8.22575 18.8664 7.84717 17.7158C7.33934 16.1723 7.09545 14.0448 7.34958 12.4117Z" fill="#888888"/>
</svg>
