<svg width="35" height="46" viewBox="0 0 35 46" fill="none" xmlns="http://www.w3.org/2000/svg">
<path d="M11.856 32.78C11.888 32.676 11.944 32.6 12.024 32.552C12.104 32.496 12.192 32.468 12.288 32.468C12.416 32.468 12.524 32.508 12.612 32.588C12.708 32.66 12.756 32.76 12.756 32.888C12.756 32.944 12.744 33.008 12.72 33.08L10.008 40.724C9.968 40.836 9.9 40.924 9.804 40.988C9.708 41.044 9.6 41.072 9.48 41.072C9.368 41.072 9.264 41.044 9.168 40.988C9.072 40.924 9.004 40.836 8.964 40.724L6.612 34.076L4.236 40.724C4.196 40.836 4.128 40.924 4.032 40.988C3.936 41.044 3.832 41.072 3.72 41.072C3.608 41.072 3.504 41.044 3.408 40.988C3.312 40.924 3.244 40.836 3.204 40.724L0.48 33.08C0.456 33.016 0.444 32.956 0.444 32.9C0.444 32.772 0.492 32.668 0.588 32.588C0.692 32.508 0.808 32.468 0.936 32.468C1.032 32.468 1.12 32.496 1.2 32.552C1.288 32.6 1.348 32.676 1.38 32.78L3.744 39.596L6.144 32.852C6.184 32.732 6.248 32.644 6.336 32.588C6.424 32.524 6.52 32.492 6.624 32.492C6.728 32.492 6.824 32.524 6.912 32.588C7 32.652 7.064 32.744 7.104 32.864L9.468 39.62L11.856 32.78ZM15.8271 35.012C17.2911 35.012 18.0231 35.78 18.0231 37.316V40.58C18.0231 40.724 17.9791 40.84 17.8911 40.928C17.8111 41.016 17.6991 41.06 17.5551 41.06C17.4111 41.06 17.2951 41.016 17.2071 40.928C17.1191 40.84 17.0751 40.724 17.0751 40.58V40.004C16.9231 40.348 16.6911 40.616 16.3791 40.808C16.0671 40.992 15.7071 41.084 15.2991 41.084C14.9231 41.084 14.5751 41.008 14.2551 40.856C13.9431 40.704 13.6951 40.492 13.5111 40.22C13.3271 39.948 13.2351 39.648 13.2351 39.32C13.2351 38.88 13.3471 38.54 13.5711 38.3C13.7951 38.052 14.1631 37.876 14.6751 37.772C15.1871 37.66 15.8991 37.604 16.8111 37.604H17.0751V37.208C17.0751 36.728 16.9751 36.376 16.7751 36.152C16.5831 35.928 16.2671 35.816 15.8271 35.816C15.2831 35.816 14.7311 35.964 14.1711 36.26C13.9551 36.396 13.8031 36.464 13.7151 36.464C13.6191 36.464 13.5391 36.428 13.4751 36.356C13.4111 36.284 13.3791 36.192 13.3791 36.08C13.3791 35.968 13.4111 35.872 13.4751 35.792C13.5471 35.704 13.6591 35.616 13.8111 35.528C14.0911 35.368 14.4071 35.244 14.7591 35.156C15.1191 35.06 15.4751 35.012 15.8271 35.012ZM15.4311 40.316C15.9111 40.316 16.3031 40.156 16.6071 39.836C16.9191 39.508 17.0751 39.088 17.0751 38.576V38.228H16.8591C16.1551 38.228 15.6191 38.26 15.2511 38.324C14.8831 38.38 14.6191 38.48 14.4591 38.624C14.3071 38.76 14.2311 38.964 14.2311 39.236C14.2311 39.548 14.3431 39.808 14.5671 40.016C14.7991 40.216 15.0871 40.316 15.4311 40.316ZM20.2943 41.06C20.1503 41.06 20.0303 41.02 19.9343 40.94C19.8463 40.852 19.8023 40.732 19.8023 40.58V32.96C19.8023 32.808 19.8463 32.692 19.9343 32.612C20.0303 32.524 20.1503 32.48 20.2943 32.48C20.4303 32.48 20.5423 32.524 20.6303 32.612C20.7263 32.692 20.7743 32.808 20.7743 32.96V40.58C20.7743 40.732 20.7263 40.852 20.6303 40.94C20.5423 41.02 20.4303 41.06 20.2943 41.06ZM23.0834 41.06C22.9394 41.06 22.8194 41.02 22.7234 40.94C22.6354 40.852 22.5914 40.732 22.5914 40.58V32.96C22.5914 32.808 22.6354 32.692 22.7234 32.612C22.8194 32.524 22.9394 32.48 23.0834 32.48C23.2194 32.48 23.3314 32.524 23.4194 32.612C23.5154 32.692 23.5634 32.808 23.5634 32.96V40.58C23.5634 40.732 23.5154 40.852 23.4194 40.94C23.3314 41.02 23.2194 41.06 23.0834 41.06ZM29.9045 39.644C29.9925 39.644 30.0685 39.68 30.1325 39.752C30.1965 39.824 30.2285 39.916 30.2285 40.028C30.2285 40.228 30.0885 40.412 29.8085 40.58C29.5205 40.748 29.2165 40.876 28.8965 40.964C28.5765 41.044 28.2645 41.084 27.9605 41.084C27.0565 41.084 26.3405 40.816 25.8125 40.28C25.2925 39.744 25.0325 39.004 25.0325 38.06C25.0325 37.46 25.1485 36.932 25.3805 36.476C25.6125 36.012 25.9365 35.652 26.3525 35.396C26.7765 35.14 27.2565 35.012 27.7925 35.012C28.5525 35.012 29.1565 35.26 29.6045 35.756C30.0525 36.252 30.2765 36.924 30.2765 37.772C30.2765 37.932 30.2445 38.048 30.1805 38.12C30.1165 38.192 30.0125 38.228 29.8685 38.228H26.0045C26.0765 39.604 26.7285 40.292 27.9605 40.292C28.2725 40.292 28.5405 40.252 28.7645 40.172C28.9885 40.084 29.2285 39.968 29.4845 39.824C29.6925 39.704 29.8325 39.644 29.9045 39.644ZM27.8045 35.768C27.2925 35.768 26.8805 35.928 26.5685 36.248C26.2645 36.568 26.0845 37.02 26.0285 37.604H29.4245C29.4085 37.012 29.2605 36.56 28.9805 36.248C28.7005 35.928 28.3085 35.768 27.8045 35.768ZM34.3734 40.292C34.6534 40.316 34.7934 40.444 34.7934 40.676C34.7934 40.812 34.7414 40.916 34.6374 40.988C34.5414 41.052 34.3934 41.076 34.1934 41.06L33.8694 41.036C33.2294 40.988 32.7574 40.796 32.4534 40.46C32.1494 40.124 31.9974 39.616 31.9974 38.936V35.924H31.1934C31.0574 35.924 30.9494 35.892 30.8694 35.828C30.7974 35.756 30.7614 35.664 30.7614 35.552C30.7614 35.432 30.7974 35.336 30.8694 35.264C30.9494 35.192 31.0574 35.156 31.1934 35.156H31.9974V33.8C31.9974 33.648 32.0414 33.532 32.1294 33.452C32.2174 33.364 32.3374 33.32 32.4894 33.32C32.6334 33.32 32.7494 33.364 32.8374 33.452C32.9254 33.532 32.9694 33.648 32.9694 33.8V35.156H34.3014C34.4294 35.156 34.5294 35.192 34.6014 35.264C34.6814 35.336 34.7214 35.432 34.7214 35.552C34.7214 35.664 34.6814 35.756 34.6014 35.828C34.5294 35.892 34.4294 35.924 34.3014 35.924H32.9694V38.984C32.9694 39.424 33.0574 39.744 33.2334 39.944C33.4174 40.136 33.6894 40.244 34.0494 40.268L34.3734 40.292Z" fill="#888888"/>
<path fill-rule="evenodd" clip-rule="evenodd" d="M25.3461 9.76424L25.8317 9.02081C26.1389 8.55066 26.0137 7.90912 25.5532 7.59532L24.7161 7.02477L21.3679 4.74245L20.5308 4.1719C20.0705 3.85811 19.4423 3.98615 19.1352 4.4563L18.5766 5.31137L15.6673 9.76451H16.8772L19.5644 5.65145C19.9154 5.67354 20.2679 5.60173 20.5837 5.44374L24.3836 8.0339C24.362 8.39241 24.4323 8.7524 24.5869 9.07501L24.1363 9.76465H25.3462L25.3461 9.76424ZM16.8334 16.0476V17.9358H18.1667V17.5953H19.1668V17.9358C19.1668 18.4975 18.7168 18.9572 18.1667 18.9572H16.8334C16.2834 18.9572 15.8334 18.4975 15.8334 17.9358V16.1405L14.8334 16.2333V15.5524L18.5001 15.2119V15.8928L16.8334 16.0476ZM14.8334 14.5309L15.8334 14.4381V13.169L16.8334 12.8285V14.3451L18.5001 14.1904V14.8714L14.8334 15.2119V14.5309ZM24 10.7856C25.1 10.7856 26 11.7049 26 12.8285V18.9571C26 20.0812 25.1886 21 24.068 21H9.9999C8.90225 21 8 20.0831 8 18.9571V10.7856C8 9.10021 9.34993 7.72133 10.9999 7.72133H15.9999L14.9998 9.25345H11.2498C10.8374 9.25345 10.4998 9.59813 10.4998 10.0195C10.4998 10.4407 10.8373 10.7856 11.2498 10.7856H23.9998H24ZM23 14.8714C23.5522 14.8714 24 15.3287 24 15.8928C24 16.4569 23.5523 16.9143 23 16.9143C22.4476 16.9143 21.9999 16.457 21.9999 15.8928C21.9999 15.3287 22.4476 14.8714 23 14.8714ZM19.6741 7.90166C20.2307 7.04971 21.3579 6.82005 22.192 7.38856C22.9636 7.91454 23.2138 8.93925 22.8063 9.76424C19.6887 9.76424 20.3218 9.76424 19.562 9.76424C19.2788 9.18773 19.2986 8.47655 19.6741 7.90166Z" fill="#888888"/>
</svg>
